<svg xmlns="http://www.w3.org/2000/svg" xmlns:xlink="http://www.w3.org/1999/xlink" width="176.314" height="176.852" viewBox="0 0 176.314 176.852">
  <defs>
    <filter id="Polygon_14" x="0" y="0" width="176.314" height="176.852" filterUnits="userSpaceOnUse">
      <feOffset dy="3" input="SourceAlpha"/>
      <feGaussianBlur stdDeviation="20" result="blur"/>
      <feFlood flood-opacity="0.09"/>
      <feComposite operator="in" in2="blur"/>
      <feComposite in="SourceGraphic"/>
    </filter>
  </defs>
  <g transform="matrix(1, 0, 0, 1, 0, 0)" filter="url(#Polygon_14)">
    <g id="Polygon_14-2" data-name="Polygon 14" transform="translate(58.16 49.88)" fill="#fff">
      <path d="M22.822,14.589a8,8,0,0,1,14.356,0L54.326,49.442a8,8,0,0,1-7.178,11.532h-34.3A8,8,0,0,1,5.674,49.442Z" stroke="none"/>
      <path d="M 29.99999809265137 10.12106323242188 C 27.14371490478516 10.12106323242188 24.28743362426758 11.61046600341797 22.82181167602539 14.58926010131836 L 5.673862457275391 49.44151306152344 C 3.058250427246094 54.7575798034668 6.927360534667969 60.97331237792969 12.85204315185547 60.97331237792969 L 47.14795303344727 60.97331237792969 C 53.0726432800293 60.97331237792969 56.94174194335938 54.7575798034668 54.32614135742188 49.44151306152344 L 37.17819213867188 14.58926010131836 C 35.71256256103516 11.61045837402344 32.85628128051758 10.12106323242188 29.99999809265137 10.12106323242188 M 30.00000190734863 7.121059417724609 C 31.99703216552734 7.121059417724609 33.94804382324219 7.652698516845703 35.64214324951172 8.658500671386719 C 37.45487213134766 9.734748840332031 38.91685104370117 11.32759094238281 39.87001037597656 13.26483154296875 L 57.01796340942383 48.11708068847656 C 58.70695114135742 51.54985809326172 58.50829315185547 55.53834915161133 56.48654174804688 58.78630065917969 C 54.46480178833008 62.03424072265625 50.97373199462891 63.97331237792969 47.14795303344727 63.97331237792969 L 12.85204315185547 63.97331237792969 C 9.026260375976562 63.97331237792969 5.535190582275391 62.03424072265625 3.513450622558594 58.78628921508789 C 1.491710662841797 55.5383415222168 1.293052673339844 51.54985809326172 2.982040405273438 48.11708068847656 L 20.1299934387207 13.26483154296875 C 21.0831413269043 11.32759857177734 22.54512023925781 9.734748840332031 24.35786056518555 8.658500671386719 C 26.05195236206055 7.652698516845703 28.00297164916992 7.121059417724609 30.00000190734863 7.121059417724609 Z" stroke="none" fill="rgba(83,71,227,0.08)"/>
    </g>
  </g>
</svg>
