<svg xmlns="http://www.w3.org/2000/svg" xmlns:xlink="http://www.w3.org/1999/xlink" width="225" height="416" viewBox="0 0 225 416"><defs><clipPath id="a"><rect width="225" height="416" transform="translate(0 5195)" fill="#fff" stroke="#707070" stroke-width="1"/></clipPath></defs><g transform="translate(0 -5195)" clip-path="url(#a)"><g transform="translate(31 5232.339)" fill="none"><path d="M62.332,0a5,5,0,0,1,4.353,2.541l18.925,33.5a5,5,0,0,1,0,4.919l-18.925,33.5A5,5,0,0,1,62.332,77H24.668a5,5,0,0,1-4.353-2.541L1.389,40.959a5,5,0,0,1,0-4.919l18.925-33.5A5,5,0,0,1,24.668,0Z" stroke="none"/><path d="M 31.67132949829102 17 L 19.52521514892578 38.49999237060547 L 31.67132949829102 60 L 55.32866287231445 60 L 67.47475433349609 38.49999618530273 L 55.32866668701172 17 L 31.67132949829102 17 M 24.66805648803711 0 L 62.33197021484375 0 C 64.13502502441406 0 65.79841613769531 0.9707794189453125 66.685302734375 2.540641784667969 L 85.61061096191406 36.0406379699707 C 86.47283172607422 37.56686019897461 86.47283172607422 39.43313980102539 85.61061096191406 40.9593620300293 L 66.685302734375 74.45935821533203 C 65.79841613769531 76.02922058105469 64.13502502441406 77 62.33194351196289 77 L 24.66802597045898 77 C 22.86497497558594 77 21.20155334472656 76.02922058105469 20.314697265625 74.45935821533203 L 1.389358520507812 40.9593620300293 C 0.5271682739257812 39.43313980102539 0.5271682739257812 37.56686019897461 1.389358520507812 36.0406379699707 L 20.314697265625 2.540641784667969 C 21.20158386230469 0.9707794189453125 22.86497497558594 0 24.66805648803711 0 Z" stroke="none" fill="#00e1f9"/></g><g transform="translate(98 5325.339)" fill="none" opacity="0.2"><path d="M38.846,0A8,8,0,0,1,45.8,4.046l9.951,17.5a8,8,0,0,1,0,7.909L45.8,46.954A8,8,0,0,1,38.846,51H19.154A8,8,0,0,1,12.2,46.954l-9.951-17.5a8,8,0,0,1,0-7.909L12.2,4.046A8,8,0,0,1,19.154,0Z" stroke="none"/><path d="M 20.3173828125 10 L 11.50364685058594 25.5000171661377 L 20.31736373901367 41 L 37.68263626098633 41 L 46.49634552001953 25.49999809265137 L 37.68264007568359 10 L 20.3173828125 10 M 19.15389251708984 0 L 38.84610748291016 0 C 41.72301864624023 0 44.37836456298828 1.544727325439453 45.80043792724609 4.045581817626953 L 55.75139999389648 21.54558181762695 C 57.14565277099609 23.99752807617188 57.14565277099609 27.00247192382812 55.75139999389648 29.45441818237305 L 45.80043792724609 46.95441818237305 C 44.37836456298828 49.45527267456055 41.72301864624023 51 38.84610748291016 51 L 19.15389251708984 51 C 16.27698135375977 51 13.62161636352539 49.45527267456055 12.19956207275391 46.95441818237305 L 2.248580932617188 29.45441818237305 C 0.8543472290039062 27.00247192382812 0.8543472290039062 23.99752807617188 2.248600006103516 21.54558181762695 L 12.19958114624023 4.045581817626953 C 13.62163543701172 1.544727325439453 16.27700042724609 0 19.15389251708984 0 Z" stroke="none" fill="#00e1f9"/></g><path d="M-2126.5,53a107.287,107.287,0,0,1-21.463-2.164,105.964,105.964,0,0,1-19.991-6.206,106.509,106.509,0,0,1-18.09-9.819,107.26,107.26,0,0,1-15.762-13,107.27,107.27,0,0,1-13-15.762,106.49,106.49,0,0,1-9.819-18.09,105.968,105.968,0,0,1-6.206-19.991A107.284,107.284,0,0,1-2233-53.5a107.281,107.281,0,0,1,2.164-21.463,105.967,105.967,0,0,1,6.206-19.991,106.49,106.49,0,0,1,9.819-18.09,107.276,107.276,0,0,1,13-15.762,107.265,107.265,0,0,1,15.762-13,106.5,106.5,0,0,1,18.09-9.819,105.961,105.961,0,0,1,19.991-6.206A107.287,107.287,0,0,1-2126.5-160a107.288,107.288,0,0,1,21.464,2.164,105.97,105.97,0,0,1,19.991,6.206,106.509,106.509,0,0,1,18.09,9.819,107.275,107.275,0,0,1,15.762,13,107.267,107.267,0,0,1,13,15.762,106.5,106.5,0,0,1,9.819,18.09,105.965,105.965,0,0,1,6.205,19.991A107.285,107.285,0,0,1-2020-53.5a107.287,107.287,0,0,1-2.164,21.464,105.972,105.972,0,0,1-6.205,19.991,106.505,106.505,0,0,1-9.819,18.09,107.27,107.27,0,0,1-13,15.762,107.273,107.273,0,0,1-15.762,13,106.516,106.516,0,0,1-18.09,9.819,105.971,105.971,0,0,1-19.991,6.206A107.287,107.287,0,0,1-2126.5,53Zm0-168.128a61.24,61.24,0,0,0-23.988,4.843,61.637,61.637,0,0,0-10.469,5.682,62.069,62.069,0,0,0-9.121,7.525,62.089,62.089,0,0,0-7.526,9.121,61.62,61.62,0,0,0-5.682,10.468,61.236,61.236,0,0,0-4.843,23.988,61.238,61.238,0,0,0,4.843,23.989,61.62,61.62,0,0,0,5.682,10.469,62.079,62.079,0,0,0,7.526,9.121,62.078,62.078,0,0,0,9.121,7.525,61.636,61.636,0,0,0,10.469,5.682A61.24,61.24,0,0,0-2126.5,8.129a61.24,61.24,0,0,0,23.988-4.843A61.636,61.636,0,0,0-2092.043-2.4a62.078,62.078,0,0,0,9.121-7.525,62.072,62.072,0,0,0,7.526-9.121,61.627,61.627,0,0,0,5.682-10.469,61.238,61.238,0,0,0,4.843-23.989,61.236,61.236,0,0,0-4.843-23.988,61.628,61.628,0,0,0-5.682-10.468,62.067,62.067,0,0,0-7.526-9.121,62.069,62.069,0,0,0-9.121-7.525,61.637,61.637,0,0,0-10.469-5.682A61.24,61.24,0,0,0-2126.5-115.129Z" transform="translate(2126 5485)" fill="#ffcd32"/><path d="M-2216.5-127a16.391,16.391,0,0,1-11.667-4.833A16.393,16.393,0,0,1-2233-143.5a16.392,16.392,0,0,1,4.833-11.667A16.392,16.392,0,0,1-2216.5-160a16.392,16.392,0,0,1,11.667,4.833A16.392,16.392,0,0,1-2200-143.5a16.393,16.393,0,0,1-4.833,11.668A16.391,16.391,0,0,1-2216.5-127Zm0-25.062a8.571,8.571,0,0,0-8.562,8.562,8.572,8.572,0,0,0,8.562,8.563,8.572,8.572,0,0,0,8.562-8.563A8.571,8.571,0,0,0-2216.5-152.062Z" transform="translate(2318 5698)" fill="#ffcd32" opacity="0.2"/><path d="M-2224.057-140.326v-7.154h-7.154a1.789,1.789,0,0,1-1.789-1.789,1.789,1.789,0,0,1,1.789-1.789h7.154v-7.154a1.789,1.789,0,0,1,1.789-1.789,1.789,1.789,0,0,1,1.788,1.789v7.154h7.155a1.788,1.788,0,0,1,1.788,1.789,1.788,1.788,0,0,1-1.788,1.789h-7.155v7.154a1.789,1.789,0,0,1-1.788,1.789A1.789,1.789,0,0,1-2224.057-140.326Z" transform="translate(1906.296 4057.316) rotate(-43)" fill="#ffcd32"/></g></svg>