<svg xmlns="http://www.w3.org/2000/svg" xmlns:xlink="http://www.w3.org/1999/xlink" width="225" height="416" viewBox="0 0 225 416"><defs><clipPath id="a"><rect width="225" height="416" fill="#fff" stroke="#707070" stroke-width="1"/></clipPath></defs><g clip-path="url(#a)"><g transform="translate(107 37.339)" fill="none"><path d="M62.332,0a5,5,0,0,1,4.353,2.541l18.925,33.5a5,5,0,0,1,0,4.919l-18.925,33.5A5,5,0,0,1,62.332,77H24.668a5,5,0,0,1-4.353-2.541L1.389,40.959a5,5,0,0,1,0-4.919l18.925-33.5A5,5,0,0,1,24.668,0Z" stroke="none"/><path d="M 31.67132949829102 17 L 19.52521514892578 38.49999237060547 L 31.67132949829102 60 L 55.32866287231445 60 L 67.47475433349609 38.49999618530273 L 55.32866668701172 17 L 31.67132949829102 17 M 24.66805648803711 0 L 62.33197021484375 0 C 64.13502502441406 0 65.79841613769531 0.9707794189453125 66.685302734375 2.540641784667969 L 85.61061096191406 36.0406379699707 C 86.47283172607422 37.56686019897461 86.47283172607422 39.43313980102539 85.61061096191406 40.9593620300293 L 66.685302734375 74.45935821533203 C 65.79841613769531 76.02922058105469 64.13502502441406 77 62.33194351196289 77 L 24.66802597045898 77 C 22.86497497558594 77 21.20155334472656 76.02922058105469 20.314697265625 74.45935821533203 L 1.389358520507812 40.9593620300293 C 0.5271682739257812 39.43313980102539 0.5271682739257812 37.56686019897461 1.389358520507812 36.0406379699707 L 20.314697265625 2.540641784667969 C 21.20158386230469 0.9707794189453125 22.86497497558594 0 24.66805648803711 0 Z" stroke="none" fill="#00e1f9"/></g><g transform="translate(69 130.339)" fill="none" opacity="0.2"><path d="M38.846,0A8,8,0,0,1,45.8,4.046l9.951,17.5a8,8,0,0,1,0,7.909L45.8,46.954A8,8,0,0,1,38.846,51H19.154A8,8,0,0,1,12.2,46.954l-9.951-17.5a8,8,0,0,1,0-7.909L12.2,4.046A8,8,0,0,1,19.154,0Z" stroke="none"/><path d="M 20.3173828125 10 L 11.50364685058594 25.5000171661377 L 20.31736373901367 41 L 37.68263626098633 41 L 46.49634552001953 25.49999809265137 L 37.68264007568359 10 L 20.3173828125 10 M 19.15389251708984 0 L 38.84610748291016 0 C 41.72301864624023 0 44.37836456298828 1.544727325439453 45.80043792724609 4.045581817626953 L 55.75139999389648 21.54558181762695 C 57.14565277099609 23.99752807617188 57.14565277099609 27.00247192382812 55.75139999389648 29.45441818237305 L 45.80043792724609 46.95441818237305 C 44.37836456298828 49.45527267456055 41.72301864624023 51 38.84610748291016 51 L 19.15389251708984 51 C 16.27698135375977 51 13.62161636352539 49.45527267456055 12.19956207275391 46.95441818237305 L 2.248580932617188 29.45441818237305 C 0.8543472290039062 27.00247192382812 0.8543472290039062 23.99752807617188 2.248600006103516 21.54558181762695 L 12.19958114624023 4.045581817626953 C 13.62163543701172 1.544727325439453 16.27700042724609 0 19.15389251708984 0 Z" stroke="none" fill="#00e1f9"/></g><path d="M106.5,0A107.287,107.287,0,0,0,85.036,2.164,105.914,105.914,0,0,0,46.955,18.188,106.812,106.812,0,0,0,8.369,65.045,105.968,105.968,0,0,0,2.164,85.036a107.532,107.532,0,0,0,0,42.927,105.913,105.913,0,0,0,16.025,38.082A106.813,106.813,0,0,0,65.045,204.63a105.961,105.961,0,0,0,19.991,6.206,107.538,107.538,0,0,0,42.927,0,105.913,105.913,0,0,0,38.082-16.025,106.812,106.812,0,0,0,38.585-46.857,105.965,105.965,0,0,0,6.205-19.991,107.538,107.538,0,0,0,0-42.927,105.912,105.912,0,0,0-16.025-38.082A106.811,106.811,0,0,0,147.955,8.369a105.971,105.971,0,0,0-19.991-6.206A107.287,107.287,0,0,0,106.5,0Zm0,168.128A61.344,61.344,0,0,1,72.043,157.6a61.8,61.8,0,0,1-22.328-27.115A61.55,61.55,0,0,1,55.4,72.042,61.806,61.806,0,0,1,82.511,49.714,61.548,61.548,0,0,1,140.957,55.4a61.805,61.805,0,0,1,22.328,27.115,61.549,61.549,0,0,1-5.682,58.446,61.806,61.806,0,0,1-27.115,22.328A61.24,61.24,0,0,1,106.5,168.128Z" transform="translate(332 342.999) rotate(180)" fill="#e2e0ff"/><path d="M16.5,0A16.5,16.5,0,0,0,4.833,28.168,16.5,16.5,0,0,0,28.167,4.833,16.391,16.391,0,0,0,16.5,0Zm0,25.062A8.562,8.562,0,1,1,25.062,16.5,8.571,8.571,0,0,1,16.5,25.062Z" transform="translate(140 376) rotate(180)" fill="#ffcd32" opacity="0.2"/><path d="M8.943,1.789V8.943H1.789a1.789,1.789,0,0,0,0,3.577H8.943v7.154a1.788,1.788,0,1,0,3.577,0V12.52h7.155a1.789,1.789,0,0,0,0-3.577H12.52V1.789a1.788,1.788,0,1,0-3.577,0Z" transform="translate(46.298 283.899) rotate(-137)" fill="#ffcd32"/></g></svg>