<svg xmlns="http://www.w3.org/2000/svg" width="567.426" height="251.786" viewBox="0 0 567.426 251.786"><g transform="translate(4025.427 -1600) rotate(90)"><path d="M4.376,8.774A4.358,4.358,0,0,1,0,4.419,4.387,4.387,0,1,1,6.176,8.384a4.335,4.335,0,0,1-1.8.39" transform="translate(1600 3692)" fill="rgba(64,69,95,0.1)"/><path d="M4.376,318A4.375,4.375,0,0,1,0,313.627v-.09a4.376,4.376,0,1,1,8.751,0v.09A4.375,4.375,0,0,1,4.376,318m0-18.037A4.376,4.376,0,0,1,0,295.59v-.09a4.376,4.376,0,1,1,8.751,0v.09a4.376,4.376,0,0,1-4.376,4.376m0-18.038A4.375,4.375,0,0,1,0,277.552v-.089a4.376,4.376,0,1,1,8.751,0v.089a4.375,4.375,0,0,1-4.376,4.376m0-18.038A4.375,4.375,0,0,1,0,259.514v-.089a4.376,4.376,0,1,1,8.751,0v.089a4.375,4.375,0,0,1-4.376,4.376m0-18.038A4.376,4.376,0,0,1,0,241.476v-.09a4.376,4.376,0,1,1,8.751,0v.09a4.376,4.376,0,0,1-4.376,4.376m0-18.038A4.375,4.375,0,0,1,0,223.439v-.089a4.376,4.376,0,1,1,8.751,0v.089a4.375,4.375,0,0,1-4.376,4.376m0-18.038A4.375,4.375,0,0,1,0,205.4v-.089a4.376,4.376,0,1,1,8.751,0v.089a4.375,4.375,0,0,1-4.376,4.376m0-18.038A4.375,4.375,0,0,1,0,187.363v-.09a4.376,4.376,0,0,1,8.751,0v.09a4.375,4.375,0,0,1-4.376,4.376m0-18.038A4.375,4.375,0,0,1,0,169.326v-.089a4.376,4.376,0,1,1,8.751,0v.089A4.375,4.375,0,0,1,4.376,173.7m0-18.038A4.375,4.375,0,0,1,0,151.288V151.2a4.376,4.376,0,1,1,8.751,0v.089a4.375,4.375,0,0,1-4.376,4.376m0-18.038A4.375,4.375,0,0,1,0,133.25v-.09a4.376,4.376,0,1,1,8.751,0v.09a4.375,4.375,0,0,1-4.376,4.376m0-18.037A4.376,4.376,0,0,1,0,115.214v-.09a4.376,4.376,0,1,1,8.751,0v.09a4.376,4.376,0,0,1-4.376,4.376m0-18.039A4.375,4.375,0,0,1,0,97.175v-.089a4.376,4.376,0,1,1,8.751,0v.089a4.375,4.375,0,0,1-4.376,4.376m0-18.038A4.375,4.375,0,0,1,0,79.138v-.09a4.376,4.376,0,1,1,8.751,0v.09a4.375,4.375,0,0,1-4.376,4.376m0-18.038A4.376,4.376,0,0,1,0,61.1v-.09a4.376,4.376,0,0,1,8.751,0v.09a4.376,4.376,0,0,1-4.376,4.376m0-18.038A4.375,4.375,0,0,1,0,43.062v-.089a4.376,4.376,0,1,1,8.751,0v.089a4.375,4.375,0,0,1-4.376,4.376m0-18.038A4.375,4.375,0,0,1,0,25.025v-.09a4.376,4.376,0,1,1,8.751,0v.09A4.375,4.375,0,0,1,4.376,29.4" transform="translate(1600 3689.432)" fill="rgba(64,69,95,0.1)"/><path d="M4.376,379.762a4.386,4.386,0,1,1,4.376-4.419v.044a4.375,4.375,0,0,1-4.376,4.376" transform="translate(1600 3645.665)" fill="rgba(64,69,95,0.1)"/><path d="M25.709,29.165a4.357,4.357,0,0,1-4.376-4.354,4.387,4.387,0,1,1,6.212,3.947,4.329,4.329,0,0,1-1.837.407" transform="translate(1597.335 3689.453)" fill="rgba(64,69,95,0.1)"/><path d="M25.709,320.54a4.375,4.375,0,0,1-4.376-4.376v-.09a4.376,4.376,0,1,1,8.751,0v.09a4.375,4.375,0,0,1-4.376,4.376m0-18.049a4.375,4.375,0,0,1-4.376-4.376v-.09a4.376,4.376,0,1,1,8.751,0v.09a4.375,4.375,0,0,1-4.376,4.376m0-18.049a4.375,4.375,0,0,1-4.376-4.376v-.09a4.376,4.376,0,0,1,8.751,0v.09a4.375,4.375,0,0,1-4.376,4.376m0-18.049a4.375,4.375,0,0,1-4.376-4.376v-.09a4.376,4.376,0,1,1,8.751,0v.09a4.375,4.375,0,0,1-4.376,4.376m0-18.049a4.375,4.375,0,0,1-4.376-4.376v-.09a4.376,4.376,0,1,1,8.751,0v.09a4.375,4.375,0,0,1-4.376,4.376m0-18.049a4.375,4.375,0,0,1-4.376-4.376v-.09a4.376,4.376,0,1,1,8.751,0v.09a4.375,4.375,0,0,1-4.376,4.376m0-18.049a4.375,4.375,0,0,1-4.376-4.376v-.09a4.376,4.376,0,1,1,8.751,0v.09a4.375,4.375,0,0,1-4.376,4.376m0-18.049a4.375,4.375,0,0,1-4.376-4.376v-.09a4.376,4.376,0,0,1,8.751,0v.09a4.375,4.375,0,0,1-4.376,4.376m0-18.049a4.375,4.375,0,0,1-4.376-4.376v-.09a4.376,4.376,0,1,1,8.751,0v.09a4.375,4.375,0,0,1-4.376,4.376m0-18.049a4.375,4.375,0,0,1-4.376-4.376v-.09a4.376,4.376,0,1,1,8.751,0v.09a4.375,4.375,0,0,1-4.376,4.376m0-18.049a4.375,4.375,0,0,1-4.376-4.376v-.09a4.376,4.376,0,1,1,8.751,0v.09a4.375,4.375,0,0,1-4.376,4.376m0-18.049a4.375,4.375,0,0,1-4.376-4.376v-.09a4.376,4.376,0,1,1,8.751,0v.09A4.375,4.375,0,0,1,25.709,122m0-18.049a4.375,4.375,0,0,1-4.376-4.376v-.09a4.376,4.376,0,0,1,8.751,0v.09a4.375,4.375,0,0,1-4.376,4.376m0-18.049a4.375,4.375,0,0,1-4.376-4.376v-.09a4.376,4.376,0,1,1,8.751,0v.09A4.375,4.375,0,0,1,25.709,85.9m0-18.049a4.375,4.375,0,0,1-4.376-4.376v-.09a4.376,4.376,0,0,1,8.751,0v.09a4.375,4.375,0,0,1-4.376,4.376m0-18.049a4.375,4.375,0,0,1-4.376-4.376v-.09a4.376,4.376,0,0,1,8.751,0v.09a4.375,4.375,0,0,1-4.376,4.376" transform="translate(1597.335 3686.884)" fill="rgba(64,69,95,0.1)"/><path d="M25.709,379.762a4.386,4.386,0,1,1,4.376-4.419v.044a4.375,4.375,0,0,1-4.376,4.376" transform="translate(1597.335 3645.665)" fill="rgba(64,69,95,0.1)"/><path d="M47.043,49.557A4.356,4.356,0,0,1,42.667,45.2a4.386,4.386,0,1,1,6.176,3.964,4.334,4.334,0,0,1-1.8.389" transform="translate(1594.671 3686.906)" fill="rgba(64,69,95,0.1)"/><path d="M47.043,323.076a4.375,4.375,0,0,1-4.376-4.376v-.089a4.376,4.376,0,1,1,8.751,0v.089a4.376,4.376,0,0,1-4.376,4.376m0-18.062a4.375,4.375,0,0,1-4.376-4.376v-.089a4.376,4.376,0,1,1,8.751,0v.089a4.376,4.376,0,0,1-4.376,4.376m0-18.061a4.375,4.375,0,0,1-4.376-4.376v-.09a4.376,4.376,0,1,1,8.751,0v.09a4.376,4.376,0,0,1-4.376,4.376m0-18.062a4.375,4.375,0,0,1-4.376-4.376v-.089a4.376,4.376,0,1,1,8.751,0v.089a4.376,4.376,0,0,1-4.376,4.376m0-18.061a4.375,4.375,0,0,1-4.376-4.376v-.09a4.376,4.376,0,1,1,8.751,0v.09a4.377,4.377,0,0,1-4.376,4.376m0-18.062a4.375,4.375,0,0,1-4.376-4.376v-.09a4.376,4.376,0,1,1,8.751,0v.09a4.376,4.376,0,0,1-4.376,4.376m0-18.062a4.375,4.375,0,0,1-4.376-4.376v-.089a4.376,4.376,0,1,1,8.751,0v.089a4.376,4.376,0,0,1-4.376,4.376m0-18.061a4.375,4.375,0,0,1-4.376-4.376v-.09a4.376,4.376,0,1,1,8.751,0v.09a4.377,4.377,0,0,1-4.376,4.376m0-18.061a4.375,4.375,0,0,1-4.376-4.376v-.091a4.376,4.376,0,1,1,8.751,0v.091a4.376,4.376,0,0,1-4.376,4.376m0-18.062a4.375,4.375,0,0,1-4.376-4.376v-.09a4.376,4.376,0,1,1,8.751,0v.09a4.376,4.376,0,0,1-4.376,4.376m0-18.061a4.375,4.375,0,0,1-4.376-4.376v-.09a4.376,4.376,0,1,1,8.751,0v.09a4.377,4.377,0,0,1-4.376,4.376m0-18.062a4.375,4.375,0,0,1-4.376-4.376v-.09a4.376,4.376,0,1,1,8.751,0v.09a4.376,4.376,0,0,1-4.376,4.376m0-18.062a4.375,4.375,0,0,1-4.376-4.376v-.089a4.376,4.376,0,0,1,8.751,0v.089a4.376,4.376,0,0,1-4.376,4.376m0-18.061A4.375,4.375,0,0,1,42.667,83.9v-.09a4.376,4.376,0,1,1,8.751,0v.09a4.377,4.377,0,0,1-4.376,4.376m0-18.062a4.375,4.375,0,0,1-4.376-4.376v-.09a4.376,4.376,0,1,1,8.751,0v.09a4.376,4.376,0,0,1-4.376,4.376" transform="translate(1594.671 3684.335)" fill="rgba(64,69,95,0.1)"/><path d="M47.043,379.762a4.386,4.386,0,1,1,4.376-4.419v.044a4.376,4.376,0,0,1-4.376,4.376" transform="translate(1594.671 3645.665)" fill="rgba(64,69,95,0.1)"/><path d="M68.376,69.95A4.358,4.358,0,0,1,64,65.6a4.387,4.387,0,1,1,6.176,3.964,4.335,4.335,0,0,1-1.8.39" transform="translate(1592.007 3684.359)" fill="rgba(64,69,95,0.1)"/><path d="M68.376,325.611A4.375,4.375,0,0,1,64,321.235v-.089a4.376,4.376,0,1,1,8.751,0v.089a4.375,4.375,0,0,1-4.376,4.376m0-18.076A4.375,4.375,0,0,1,64,303.159v-.089a4.376,4.376,0,0,1,8.751,0v.089a4.375,4.375,0,0,1-4.376,4.375m0-18.076A4.375,4.375,0,0,1,64,285.083v-.09a4.376,4.376,0,0,1,8.751,0v.09a4.375,4.375,0,0,1-4.376,4.376m0-18.076A4.376,4.376,0,0,1,64,267.007v-.09a4.376,4.376,0,0,1,8.751,0v.09a4.376,4.376,0,0,1-4.376,4.376m0-18.076A4.375,4.375,0,0,1,64,248.931v-.09a4.376,4.376,0,1,1,8.751,0v.09a4.375,4.375,0,0,1-4.376,4.376m0-18.076A4.375,4.375,0,0,1,64,230.855v-.09a4.376,4.376,0,1,1,8.751,0v.09a4.375,4.375,0,0,1-4.376,4.376m0-18.076A4.376,4.376,0,0,1,64,212.779v-.09a4.376,4.376,0,0,1,8.751,0v.09a4.376,4.376,0,0,1-4.376,4.376m0-18.076A4.376,4.376,0,0,1,64,194.7v-.09a4.376,4.376,0,0,1,8.751,0v.09a4.376,4.376,0,0,1-4.376,4.376m0-18.077A4.375,4.375,0,0,1,64,176.625v-.089a4.376,4.376,0,0,1,8.751,0v.089A4.375,4.375,0,0,1,68.376,181m0-18.075A4.375,4.375,0,0,1,64,158.55v-.091a4.376,4.376,0,0,1,8.751,0v.091a4.375,4.375,0,0,1-4.376,4.376m0-18.076A4.376,4.376,0,0,1,64,140.474v-.091a4.376,4.376,0,0,1,8.751,0v.091a4.376,4.376,0,0,1-4.376,4.376m0-18.076A4.376,4.376,0,0,1,64,122.4v-.09a4.376,4.376,0,0,1,8.751,0v.09a4.376,4.376,0,0,1-4.376,4.376m0-18.077A4.375,4.375,0,0,1,64,104.321v-.089a4.376,4.376,0,1,1,8.751,0v.089a4.375,4.375,0,0,1-4.376,4.376m0-18.076A4.375,4.375,0,0,1,64,86.245v-.09a4.376,4.376,0,0,1,8.751,0v.09a4.375,4.375,0,0,1-4.376,4.376" transform="translate(1592.007 3681.786)" fill="rgba(64,69,95,0.1)"/><path d="M68.376,379.762a4.386,4.386,0,1,1,4.376-4.419v.044a4.375,4.375,0,0,1-4.376,4.376" transform="translate(1592.007 3645.665)" fill="rgba(64,69,95,0.1)"/><path d="M89.71,90.34a4.357,4.357,0,0,1-4.376-4.354,4.386,4.386,0,1,1,6.188,3.958,4.317,4.317,0,0,1-1.812.4" transform="translate(1589.342 3681.813)" fill="rgba(64,69,95,0.1)"/><path d="M89.71,328.143a4.376,4.376,0,0,1-4.376-4.376v-.09a4.376,4.376,0,1,1,8.751,0v.09a4.377,4.377,0,0,1-4.376,4.376m0-18.093a4.375,4.375,0,0,1-4.376-4.376v-.09a4.376,4.376,0,0,1,8.751,0v.09a4.376,4.376,0,0,1-4.376,4.376m0-18.093a4.375,4.375,0,0,1-4.376-4.376v-.09a4.376,4.376,0,0,1,8.751,0v.09a4.376,4.376,0,0,1-4.376,4.376m0-18.093a4.375,4.375,0,0,1-4.376-4.376v-.09a4.376,4.376,0,0,1,8.751,0v.09a4.376,4.376,0,0,1-4.376,4.376m0-18.093a4.375,4.375,0,0,1-4.376-4.376v-.09a4.376,4.376,0,0,1,8.751,0v.09a4.376,4.376,0,0,1-4.376,4.376m0-18.093a4.376,4.376,0,0,1-4.376-4.376v-.09a4.376,4.376,0,0,1,8.751,0v.09a4.377,4.377,0,0,1-4.376,4.376m0-18.093a4.375,4.375,0,0,1-4.376-4.376v-.09a4.376,4.376,0,0,1,8.751,0v.09a4.376,4.376,0,0,1-4.376,4.376m0-18.093a4.375,4.375,0,0,1-4.376-4.376v-.09a4.376,4.376,0,0,1,8.751,0v.09a4.376,4.376,0,0,1-4.376,4.376m0-18.093a4.375,4.375,0,0,1-4.376-4.376v-.089a4.376,4.376,0,0,1,8.751,0v.089A4.376,4.376,0,0,1,89.71,183.4m0-18.093a4.375,4.375,0,0,1-4.376-4.376v-.09a4.376,4.376,0,1,1,8.751,0v.09a4.376,4.376,0,0,1-4.376,4.376m0-18.092a4.376,4.376,0,0,1-4.376-4.376v-.091a4.376,4.376,0,0,1,8.751,0v.091a4.377,4.377,0,0,1-4.376,4.376m0-18.094a4.375,4.375,0,0,1-4.376-4.376v-.09a4.376,4.376,0,0,1,8.751,0v.09a4.376,4.376,0,0,1-4.376,4.376m0-18.093a4.375,4.375,0,0,1-4.376-4.376v-.09a4.376,4.376,0,0,1,8.751,0v.09a4.376,4.376,0,0,1-4.376,4.376" transform="translate(1589.342 3679.237)" fill="rgba(64,69,95,0.1)"/><path d="M89.71,379.762a4.386,4.386,0,1,1,4.376-4.419v.044a4.376,4.376,0,0,1-4.376,4.376" transform="translate(1589.342 3645.665)" fill="rgba(64,69,95,0.1)"/><path d="M111.042,110.733a4.358,4.358,0,0,1-4.376-4.355,4.387,4.387,0,1,1,6.176,3.964,4.335,4.335,0,0,1-1.8.39" transform="translate(1586.678 3679.266)" fill="rgba(64,69,95,0.1)"/><path d="M111.042,330.674a4.375,4.375,0,0,1-4.376-4.376v-.09a4.376,4.376,0,1,1,8.751,0v.09a4.375,4.375,0,0,1-4.376,4.376m0-18.112a4.376,4.376,0,0,1-4.376-4.376v-.09a4.376,4.376,0,1,1,8.751,0v.09a4.376,4.376,0,0,1-4.376,4.376m0-18.112a4.375,4.375,0,0,1-4.376-4.376v-.09a4.376,4.376,0,0,1,8.751,0v.09a4.375,4.375,0,0,1-4.376,4.376m0-18.112a4.375,4.375,0,0,1-4.376-4.376v-.089a4.376,4.376,0,1,1,8.751,0v.089a4.375,4.375,0,0,1-4.376,4.376m0-18.111a4.375,4.375,0,0,1-4.376-4.376v-.091a4.376,4.376,0,1,1,8.751,0v.091a4.375,4.375,0,0,1-4.376,4.376m0-18.112a4.376,4.376,0,0,1-4.376-4.376v-.09a4.376,4.376,0,1,1,8.751,0v.09a4.376,4.376,0,0,1-4.376,4.376m0-18.112a4.375,4.375,0,0,1-4.376-4.376v-.09a4.376,4.376,0,1,1,8.751,0v.09A4.375,4.375,0,0,1,111.042,222m0-18.112a4.375,4.375,0,0,1-4.376-4.376v-.089a4.376,4.376,0,1,1,8.751,0v.089a4.375,4.375,0,0,1-4.376,4.376m0-18.111a4.375,4.375,0,0,1-4.376-4.376v-.091a4.376,4.376,0,0,1,8.751,0v.091a4.375,4.375,0,0,1-4.376,4.376m0-18.112a4.376,4.376,0,0,1-4.376-4.376v-.09a4.376,4.376,0,1,1,8.751,0v.09a4.376,4.376,0,0,1-4.376,4.376m0-18.112a4.375,4.375,0,0,1-4.376-4.376v-.09a4.376,4.376,0,0,1,8.751,0v.09a4.375,4.375,0,0,1-4.376,4.376m0-18.112a4.375,4.375,0,0,1-4.376-4.376v-.09a4.376,4.376,0,0,1,8.751,0v.09a4.375,4.375,0,0,1-4.376,4.376" transform="translate(1586.678 3676.688)" fill="rgba(64,69,95,0.1)"/><path d="M111.042,379.762a4.386,4.386,0,1,1,4.376-4.419v.044a4.375,4.375,0,0,1-4.376,4.376" transform="translate(1586.678 3645.665)" fill="rgba(64,69,95,0.1)"/><path d="M132.376,131.124A4.357,4.357,0,0,1,128,126.77a4.387,4.387,0,1,1,8.773-.044,4.369,4.369,0,0,1-2.573,4,4.315,4.315,0,0,1-1.825.4" transform="translate(1584.013 3676.719)" fill="rgba(64,69,95,0.1)"/><path d="M132.376,333.2A4.376,4.376,0,0,1,128,328.827v-.091a4.376,4.376,0,1,1,8.751,0v.091a4.376,4.376,0,0,1-4.376,4.376m0-18.135A4.375,4.375,0,0,1,128,310.692v-.09a4.376,4.376,0,0,1,8.751,0v.09a4.375,4.375,0,0,1-4.376,4.376m0-18.134A4.375,4.375,0,0,1,128,292.559v-.09a4.376,4.376,0,1,1,8.751,0v.09a4.375,4.375,0,0,1-4.376,4.376m0-18.134A4.376,4.376,0,0,1,128,274.425v-.09a4.376,4.376,0,0,1,8.751,0v.09a4.376,4.376,0,0,1-4.376,4.376m0-18.134A4.375,4.375,0,0,1,128,256.291V256.2a4.376,4.376,0,0,1,8.751,0v.091a4.375,4.375,0,0,1-4.376,4.376m0-18.135A4.375,4.375,0,0,1,128,238.156v-.089a4.376,4.376,0,1,1,8.751,0v.089a4.375,4.375,0,0,1-4.376,4.376m0-18.133A4.376,4.376,0,0,1,128,220.023v-.091a4.376,4.376,0,1,1,8.751,0v.091a4.376,4.376,0,0,1-4.376,4.376m0-18.135A4.375,4.375,0,0,1,128,201.888v-.09a4.376,4.376,0,0,1,8.751,0v.09a4.375,4.375,0,0,1-4.376,4.376m0-18.134A4.375,4.375,0,0,1,128,183.754v-.09a4.376,4.376,0,1,1,8.751,0v.09a4.375,4.375,0,0,1-4.376,4.376m0-18.134A4.376,4.376,0,0,1,128,165.62v-.09a4.376,4.376,0,0,1,8.751,0v.09A4.376,4.376,0,0,1,132.376,170m0-18.134A4.375,4.375,0,0,1,128,147.487V147.4a4.376,4.376,0,1,1,8.751,0v.091a4.375,4.375,0,0,1-4.376,4.376" transform="translate(1584.013 3674.137)" fill="rgba(64,69,95,0.1)"/><path d="M132.376,379.762a4.386,4.386,0,1,1,4.376-4.419v.044a4.375,4.375,0,0,1-4.376,4.376" transform="translate(1584.013 3645.665)" fill="rgba(64,69,95,0.1)"/><g transform="translate(1600 3458.001)"><path d="M4.4,0A4.358,4.358,0,0,1,8.773,4.356,4.387,4.387,0,1,1,2.6.391,4.335,4.335,0,0,1,4.4,0" transform="translate(112.013 324.652)" fill="rgba(64,69,95,0.1)"/><path d="M4.376,20.559a4.375,4.375,0,0,1,4.376,4.376v.09a4.376,4.376,0,1,1-8.751,0v-.09a4.375,4.375,0,0,1,4.376-4.376m0,18.037a4.376,4.376,0,0,1,4.376,4.376v.09a4.376,4.376,0,1,1-8.751,0v-.09A4.376,4.376,0,0,1,4.376,38.6m0,18.038A4.375,4.375,0,0,1,8.751,61.01V61.1A4.376,4.376,0,1,1,0,61.1V61.01a4.375,4.375,0,0,1,4.376-4.376m0,18.038a4.375,4.375,0,0,1,4.376,4.376v.089a4.376,4.376,0,1,1-8.751,0v-.089a4.375,4.375,0,0,1,4.376-4.376m0,18.038a4.376,4.376,0,0,1,4.376,4.376v.09a4.376,4.376,0,1,1-8.751,0v-.09A4.376,4.376,0,0,1,4.376,92.71m0,18.038a4.375,4.375,0,0,1,4.376,4.376v.089a4.376,4.376,0,1,1-8.751,0v-.089a4.375,4.375,0,0,1,4.376-4.376m0,18.038a4.375,4.375,0,0,1,4.376,4.376v.089a4.376,4.376,0,1,1-8.751,0v-.089a4.375,4.375,0,0,1,4.376-4.376m0,18.038A4.375,4.375,0,0,1,8.751,151.2v.09a4.376,4.376,0,0,1-8.751,0v-.09a4.375,4.375,0,0,1,4.376-4.376m0,18.038a4.375,4.375,0,0,1,4.376,4.376v.089a4.376,4.376,0,1,1-8.751,0v-.089a4.375,4.375,0,0,1,4.376-4.376m0,18.038a4.375,4.375,0,0,1,4.376,4.376v.089a4.376,4.376,0,1,1-8.751,0v-.089A4.375,4.375,0,0,1,4.376,182.9m0,18.038a4.375,4.375,0,0,1,4.376,4.376v.09A4.376,4.376,0,1,1,0,205.4v-.09a4.375,4.375,0,0,1,4.376-4.376m0,18.037a4.376,4.376,0,0,1,4.376,4.376v.09a4.376,4.376,0,1,1-8.751,0v-.09a4.376,4.376,0,0,1,4.376-4.376m0,18.039a4.375,4.375,0,0,1,4.376,4.376v.089a4.376,4.376,0,1,1-8.751,0v-.089a4.375,4.375,0,0,1,4.376-4.376m0,18.038a4.375,4.375,0,0,1,4.376,4.376v.09a4.376,4.376,0,1,1-8.751,0v-.09a4.375,4.375,0,0,1,4.376-4.376m0,18.038a4.376,4.376,0,0,1,4.376,4.376v.09a4.376,4.376,0,1,1-8.751,0v-.09a4.376,4.376,0,0,1,4.376-4.376m0,18.038A4.375,4.375,0,0,1,8.751,295.5v.089a4.376,4.376,0,1,1-8.751,0V295.5a4.375,4.375,0,0,1,4.376-4.376m0,18.038a4.375,4.375,0,0,1,4.376,4.376v.09a4.376,4.376,0,1,1-8.751,0v-.09a4.375,4.375,0,0,1,4.376-4.376" transform="translate(112.035 -2.567)" fill="rgba(64,69,95,0.1)"/><path d="M4.376,370.989A4.386,4.386,0,1,1,0,375.408v-.044a4.375,4.375,0,0,1,4.376-4.376" transform="translate(112.035 -370.989)" fill="rgba(64,69,95,0.1)"/><path d="M25.73,20.392a4.357,4.357,0,0,1,4.376,4.354A4.387,4.387,0,1,1,23.894,20.8a4.329,4.329,0,0,1,1.837-.407" transform="translate(72.012 286.417)" fill="rgba(64,69,95,0.1)"/><path d="M25.709,40.964a4.375,4.375,0,0,1,4.376,4.376v.09a4.376,4.376,0,1,1-8.751,0v-.09a4.375,4.375,0,0,1,4.376-4.376m0,18.049a4.375,4.375,0,0,1,4.376,4.376v.09a4.376,4.376,0,1,1-8.751,0v-.09a4.375,4.375,0,0,1,4.376-4.376m0,18.049a4.375,4.375,0,0,1,4.376,4.376v.09a4.376,4.376,0,0,1-8.751,0v-.09a4.375,4.375,0,0,1,4.376-4.376m0,18.049a4.375,4.375,0,0,1,4.376,4.376v.09a4.376,4.376,0,1,1-8.751,0v-.09a4.375,4.375,0,0,1,4.376-4.376m0,18.049a4.375,4.375,0,0,1,4.376,4.376v.09a4.376,4.376,0,1,1-8.751,0v-.09a4.375,4.375,0,0,1,4.376-4.376m0,18.049a4.375,4.375,0,0,1,4.376,4.376v.09a4.376,4.376,0,1,1-8.751,0v-.09a4.375,4.375,0,0,1,4.376-4.376m0,18.049a4.375,4.375,0,0,1,4.376,4.376v.09a4.376,4.376,0,1,1-8.751,0v-.09a4.375,4.375,0,0,1,4.376-4.376m0,18.049a4.375,4.375,0,0,1,4.376,4.376v.09a4.376,4.376,0,0,1-8.751,0v-.09a4.375,4.375,0,0,1,4.376-4.376m0,18.049a4.375,4.375,0,0,1,4.376,4.376v.09a4.376,4.376,0,1,1-8.751,0v-.09a4.375,4.375,0,0,1,4.376-4.376m0,18.049a4.375,4.375,0,0,1,4.376,4.376v.09a4.376,4.376,0,1,1-8.751,0v-.09a4.375,4.375,0,0,1,4.376-4.376m0,18.049a4.375,4.375,0,0,1,4.376,4.376v.09a4.376,4.376,0,1,1-8.751,0v-.09a4.375,4.375,0,0,1,4.376-4.376m0,18.049a4.375,4.375,0,0,1,4.376,4.376v.09a4.376,4.376,0,1,1-8.751,0v-.09a4.375,4.375,0,0,1,4.376-4.376m0,18.049a4.375,4.375,0,0,1,4.376,4.376v.09a4.376,4.376,0,0,1-8.751,0v-.09a4.375,4.375,0,0,1,4.376-4.376m0,18.049a4.375,4.375,0,0,1,4.376,4.376v.09a4.376,4.376,0,1,1-8.751,0v-.09a4.375,4.375,0,0,1,4.376-4.376m0,18.049a4.375,4.375,0,0,1,4.376,4.376v.09a4.376,4.376,0,0,1-8.751,0v-.09a4.375,4.375,0,0,1,4.376-4.376m0,18.049a4.375,4.375,0,0,1,4.376,4.376v.09a4.376,4.376,0,0,1-8.751,0v-.09a4.375,4.375,0,0,1,4.376-4.376" transform="translate(72.034 -22.961)" fill="rgba(64,69,95,0.1)"/><path d="M25.709,370.989a4.386,4.386,0,1,1-4.376,4.419v-.044a4.375,4.375,0,0,1,4.376-4.376" transform="translate(72.034 -370.989)" fill="rgba(64,69,95,0.1)"/><path d="M47.064,40.785a4.356,4.356,0,0,1,4.376,4.354,4.386,4.386,0,1,1-6.176-3.964,4.334,4.334,0,0,1,1.8-.389" transform="translate(32.009 248.179)" fill="rgba(64,69,95,0.1)"/><path d="M47.043,61.37a4.375,4.375,0,0,1,4.376,4.376v.089a4.376,4.376,0,0,1-8.751,0v-.089a4.376,4.376,0,0,1,4.376-4.376m0,18.062a4.375,4.375,0,0,1,4.376,4.376V83.9a4.376,4.376,0,0,1-8.751,0v-.089a4.376,4.376,0,0,1,4.376-4.376m0,18.061a4.375,4.375,0,0,1,4.376,4.376v.09a4.376,4.376,0,1,1-8.751,0v-.09a4.376,4.376,0,0,1,4.376-4.376m0,18.062a4.375,4.375,0,0,1,4.376,4.376v.089a4.376,4.376,0,0,1-8.751,0v-.089a4.376,4.376,0,0,1,4.376-4.376m0,18.061a4.375,4.375,0,0,1,4.376,4.376v.09a4.376,4.376,0,0,1-8.751,0v-.09a4.377,4.377,0,0,1,4.376-4.376m0,18.062a4.375,4.375,0,0,1,4.376,4.376v.09a4.376,4.376,0,0,1-8.751,0v-.09a4.376,4.376,0,0,1,4.376-4.376m0,18.062a4.375,4.375,0,0,1,4.376,4.376v.089a4.376,4.376,0,0,1-8.751,0v-.089a4.376,4.376,0,0,1,4.376-4.376m0,18.061a4.375,4.375,0,0,1,4.376,4.376v.09a4.376,4.376,0,1,1-8.751,0v-.09a4.377,4.377,0,0,1,4.376-4.376m0,18.061a4.375,4.375,0,0,1,4.376,4.376v.091a4.376,4.376,0,1,1-8.751,0v-.091a4.376,4.376,0,0,1,4.376-4.376m0,18.062a4.375,4.375,0,0,1,4.376,4.376v.09a4.376,4.376,0,1,1-8.751,0v-.09a4.376,4.376,0,0,1,4.376-4.376m0,18.061a4.375,4.375,0,0,1,4.376,4.376v.09a4.376,4.376,0,1,1-8.751,0v-.09a4.377,4.377,0,0,1,4.376-4.376m0,18.062a4.375,4.375,0,0,1,4.376,4.376v.09a4.376,4.376,0,1,1-8.751,0v-.09a4.376,4.376,0,0,1,4.376-4.376m0,18.062a4.375,4.375,0,0,1,4.376,4.376v.089a4.376,4.376,0,0,1-8.751,0v-.089a4.376,4.376,0,0,1,4.376-4.376m0,18.061a4.375,4.375,0,0,1,4.376,4.376v.09a4.376,4.376,0,1,1-8.751,0v-.09a4.377,4.377,0,0,1,4.376-4.376m0,18.062a4.375,4.375,0,0,1,4.376,4.376v.09a4.376,4.376,0,1,1-8.751,0v-.09a4.376,4.376,0,0,1,4.376-4.376" transform="translate(32.03 -43.354)" fill="rgba(64,69,95,0.1)"/><path d="M47.043,370.989a4.386,4.386,0,1,1-4.376,4.419v-.044a4.376,4.376,0,0,1,4.376-4.376" transform="translate(32.03 -370.989)" fill="rgba(64,69,95,0.1)"/><path d="M68.4,61.177a4.358,4.358,0,0,1,4.376,4.355A4.387,4.387,0,1,1,66.6,61.567a4.335,4.335,0,0,1,1.8-.39" transform="translate(-7.993 209.941)" fill="rgba(64,69,95,0.1)"/><path d="M68.376,81.779a4.375,4.375,0,0,1,4.376,4.376v.089a4.376,4.376,0,1,1-8.751,0v-.089a4.375,4.375,0,0,1,4.376-4.376m0,18.076a4.375,4.375,0,0,1,4.376,4.375v.089a4.376,4.376,0,1,1-8.751,0v-.089a4.375,4.375,0,0,1,4.376-4.375m0,18.076a4.375,4.375,0,0,1,4.376,4.376v.09a4.376,4.376,0,1,1-8.751,0v-.09a4.375,4.375,0,0,1,4.376-4.376m0,18.076a4.376,4.376,0,0,1,4.376,4.376v.09a4.376,4.376,0,0,1-8.751,0v-.09a4.376,4.376,0,0,1,4.376-4.376m0,18.076a4.375,4.375,0,0,1,4.376,4.376v.09a4.376,4.376,0,0,1-8.751,0v-.09a4.375,4.375,0,0,1,4.376-4.376m0,18.076a4.375,4.375,0,0,1,4.376,4.376v.09a4.376,4.376,0,0,1-8.751,0v-.09a4.375,4.375,0,0,1,4.376-4.376m0,18.076a4.376,4.376,0,0,1,4.376,4.376v.09a4.376,4.376,0,0,1-8.751,0v-.09a4.376,4.376,0,0,1,4.376-4.376m0,18.076a4.376,4.376,0,0,1,4.376,4.376v.09a4.376,4.376,0,0,1-8.751,0v-.09a4.376,4.376,0,0,1,4.376-4.376m0,18.077a4.375,4.375,0,0,1,4.376,4.376v.089a4.376,4.376,0,0,1-8.751,0v-.089a4.375,4.375,0,0,1,4.376-4.376m0,18.075a4.375,4.375,0,0,1,4.376,4.376v.091a4.376,4.376,0,0,1-8.751,0v-.091a4.375,4.375,0,0,1,4.376-4.376m0,18.076a4.376,4.376,0,0,1,4.376,4.376v.091a4.376,4.376,0,0,1-8.751,0v-.091a4.376,4.376,0,0,1,4.376-4.376m0,18.076a4.376,4.376,0,0,1,4.376,4.376v.09a4.376,4.376,0,0,1-8.751,0v-.09a4.376,4.376,0,0,1,4.376-4.376m0,18.077a4.375,4.375,0,0,1,4.376,4.376v.089a4.376,4.376,0,0,1-8.751,0v-.089a4.375,4.375,0,0,1,4.376-4.376m0,18.076a4.375,4.375,0,0,1,4.376,4.376v.09a4.376,4.376,0,1,1-8.751,0v-.09a4.375,4.375,0,0,1,4.376-4.376" transform="translate(-7.972 -63.749)" fill="rgba(64,69,95,0.1)"/><path d="M68.376,370.989A4.386,4.386,0,1,1,64,375.408v-.044a4.375,4.375,0,0,1,4.376-4.376" transform="translate(-7.972 -370.989)" fill="rgba(64,69,95,0.1)"/><path d="M89.731,81.568a4.357,4.357,0,0,1,4.376,4.354,4.386,4.386,0,1,1-6.188-3.958,4.317,4.317,0,0,1,1.812-.4" transform="translate(-47.996 171.706)" fill="rgba(64,69,95,0.1)"/><path d="M89.71,102.189a4.376,4.376,0,0,1,4.376,4.376v.09a4.376,4.376,0,1,1-8.751,0v-.09a4.377,4.377,0,0,1,4.376-4.376m0,18.093a4.375,4.375,0,0,1,4.376,4.376v.09a4.376,4.376,0,1,1-8.751,0v-.09a4.376,4.376,0,0,1,4.376-4.376m0,18.093a4.375,4.375,0,0,1,4.376,4.376v.09a4.376,4.376,0,1,1-8.751,0v-.09a4.376,4.376,0,0,1,4.376-4.376m0,18.093a4.375,4.375,0,0,1,4.376,4.376v.09a4.376,4.376,0,0,1-8.751,0v-.09a4.376,4.376,0,0,1,4.376-4.376m0,18.093a4.375,4.375,0,0,1,4.376,4.376v.09a4.376,4.376,0,0,1-8.751,0v-.09a4.376,4.376,0,0,1,4.376-4.376m0,18.093a4.376,4.376,0,0,1,4.376,4.376v.09a4.376,4.376,0,0,1-8.751,0v-.09a4.377,4.377,0,0,1,4.376-4.376m0,18.093a4.375,4.375,0,0,1,4.376,4.376v.09a4.376,4.376,0,0,1-8.751,0v-.09a4.376,4.376,0,0,1,4.376-4.376m0,18.093a4.375,4.375,0,0,1,4.376,4.376v.09a4.376,4.376,0,0,1-8.751,0v-.09a4.376,4.376,0,0,1,4.376-4.376m0,18.093a4.375,4.375,0,0,1,4.376,4.376v.089a4.376,4.376,0,0,1-8.751,0v-.089a4.376,4.376,0,0,1,4.376-4.376m0,18.093a4.375,4.375,0,0,1,4.376,4.375v.09a4.376,4.376,0,1,1-8.751,0v-.09a4.376,4.376,0,0,1,4.376-4.375m0,18.092a4.376,4.376,0,0,1,4.376,4.376v.091a4.376,4.376,0,1,1-8.751,0v-.091a4.377,4.377,0,0,1,4.376-4.376m0,18.094a4.375,4.375,0,0,1,4.376,4.375v.09a4.376,4.376,0,0,1-8.751,0v-.09a4.376,4.376,0,0,1,4.376-4.375m0,18.093a4.375,4.375,0,0,1,4.376,4.376v.09a4.376,4.376,0,1,1-8.751,0v-.09A4.376,4.376,0,0,1,89.71,319.3" transform="translate(-47.975 -84.143)" fill="rgba(64,69,95,0.1)"/><path d="M89.71,370.989a4.386,4.386,0,1,1-4.376,4.419v-.044a4.376,4.376,0,0,1,4.376-4.376" transform="translate(-47.975 -370.989)" fill="rgba(64,69,95,0.1)"/><path d="M111.063,101.96a4.358,4.358,0,0,1,4.376,4.355,4.387,4.387,0,1,1-6.176-3.964,4.335,4.335,0,0,1,1.8-.39" transform="translate(-87.997 133.468)" fill="rgba(64,69,95,0.1)"/><path d="M111.042,122.6a4.375,4.375,0,0,1,4.376,4.376v.09a4.376,4.376,0,1,1-8.751,0v-.09a4.375,4.375,0,0,1,4.376-4.376m0,18.112a4.376,4.376,0,0,1,4.376,4.376v.09a4.376,4.376,0,1,1-8.751,0v-.09a4.376,4.376,0,0,1,4.376-4.376m0,18.112a4.375,4.375,0,0,1,4.376,4.376v.09a4.376,4.376,0,0,1-8.751,0v-.09a4.375,4.375,0,0,1,4.376-4.376m0,18.112a4.375,4.375,0,0,1,4.376,4.376v.089a4.376,4.376,0,1,1-8.751,0v-.089a4.375,4.375,0,0,1,4.376-4.376m0,18.111a4.375,4.375,0,0,1,4.376,4.376v.091a4.376,4.376,0,1,1-8.751,0v-.091a4.375,4.375,0,0,1,4.376-4.376m0,18.112a4.376,4.376,0,0,1,4.376,4.376v.09a4.376,4.376,0,1,1-8.751,0v-.09a4.376,4.376,0,0,1,4.376-4.376m0,18.112a4.375,4.375,0,0,1,4.376,4.376v.09a4.376,4.376,0,1,1-8.751,0v-.09a4.375,4.375,0,0,1,4.376-4.376m0,18.112a4.375,4.375,0,0,1,4.376,4.376v.089a4.376,4.376,0,0,1-8.751,0v-.089a4.375,4.375,0,0,1,4.376-4.376m0,18.111a4.375,4.375,0,0,1,4.376,4.375v.091a4.376,4.376,0,1,1-8.751,0v-.091a4.375,4.375,0,0,1,4.376-4.375m0,18.112a4.376,4.376,0,0,1,4.376,4.376v.09a4.376,4.376,0,1,1-8.751,0v-.09a4.376,4.376,0,0,1,4.376-4.376m0,18.112a4.375,4.375,0,0,1,4.376,4.375v.09a4.376,4.376,0,0,1-8.751,0v-.09a4.375,4.375,0,0,1,4.376-4.375m0,18.112a4.375,4.375,0,0,1,4.376,4.376v.09a4.376,4.376,0,1,1-8.751,0v-.09a4.375,4.375,0,0,1,4.376-4.376" transform="translate(-87.975 -104.536)" fill="rgba(64,69,95,0.1)"/><path d="M111.042,370.989a4.386,4.386,0,1,1-4.376,4.419v-.044a4.375,4.375,0,0,1,4.376-4.376" transform="translate(-87.975 -370.989)" fill="rgba(64,69,95,0.1)"/><path d="M132.4,122.351a4.357,4.357,0,0,1,4.376,4.354,4.387,4.387,0,1,1-8.773.044,4.369,4.369,0,0,1,2.573-4,4.315,4.315,0,0,1,1.825-.4" transform="translate(-128 95.233)" fill="rgba(64,69,95,0.1)"/><path d="M132.376,143.02a4.376,4.376,0,0,1,4.376,4.376v.091a4.376,4.376,0,1,1-8.751,0V147.4a4.376,4.376,0,0,1,4.376-4.376m0,18.135a4.375,4.375,0,0,1,4.376,4.376v.09a4.376,4.376,0,0,1-8.751,0v-.09a4.375,4.375,0,0,1,4.376-4.376m0,18.134a4.375,4.375,0,0,1,4.376,4.376v.09a4.376,4.376,0,1,1-8.751,0v-.09a4.375,4.375,0,0,1,4.376-4.376m0,18.134a4.376,4.376,0,0,1,4.376,4.376v.09a4.376,4.376,0,0,1-8.751,0v-.09a4.376,4.376,0,0,1,4.376-4.376m0,18.134a4.375,4.375,0,0,1,4.376,4.376v.091a4.376,4.376,0,0,1-8.751,0v-.091a4.375,4.375,0,0,1,4.376-4.376m0,18.135a4.375,4.375,0,0,1,4.376,4.376v.089a4.376,4.376,0,0,1-8.751,0v-.089a4.375,4.375,0,0,1,4.376-4.376m0,18.133a4.376,4.376,0,0,1,4.376,4.376v.091a4.376,4.376,0,0,1-8.751,0V256.2a4.376,4.376,0,0,1,4.376-4.376m0,18.135a4.375,4.375,0,0,1,4.376,4.376v.09a4.376,4.376,0,0,1-8.751,0v-.09a4.375,4.375,0,0,1,4.376-4.376m0,18.134a4.375,4.375,0,0,1,4.376,4.375v.09a4.376,4.376,0,0,1-8.751,0v-.09a4.375,4.375,0,0,1,4.376-4.375m0,18.134a4.376,4.376,0,0,1,4.376,4.376v.09a4.376,4.376,0,0,1-8.751,0v-.09a4.376,4.376,0,0,1,4.376-4.376m0,18.134a4.375,4.375,0,0,1,4.376,4.376v.091a4.376,4.376,0,0,1-8.751,0v-.091a4.375,4.375,0,0,1,4.376-4.376" transform="translate(-127.978 -124.933)" fill="rgba(64,69,95,0.1)"/><path d="M132.376,370.989A4.386,4.386,0,1,1,128,375.408v-.044a4.375,4.375,0,0,1,4.376-4.376" transform="translate(-127.978 -370.989)" fill="rgba(64,69,95,0.1)"/></g><path d="M4.376,8.774A4.358,4.358,0,0,1,0,4.419,4.387,4.387,0,1,1,6.176,8.384a4.335,4.335,0,0,1-1.8.39" transform="translate(1731 3692)" fill="rgba(64,69,95,0.1)"/><path d="M4.376,318A4.375,4.375,0,0,1,0,313.627v-.09a4.376,4.376,0,1,1,8.751,0v.09A4.375,4.375,0,0,1,4.376,318m0-18.037A4.376,4.376,0,0,1,0,295.59v-.09a4.376,4.376,0,1,1,8.751,0v.09a4.376,4.376,0,0,1-4.376,4.376m0-18.038A4.375,4.375,0,0,1,0,277.552v-.089a4.376,4.376,0,1,1,8.751,0v.089a4.375,4.375,0,0,1-4.376,4.376m0-18.038A4.375,4.375,0,0,1,0,259.514v-.089a4.376,4.376,0,1,1,8.751,0v.089a4.375,4.375,0,0,1-4.376,4.376m0-18.038A4.376,4.376,0,0,1,0,241.476v-.09a4.376,4.376,0,1,1,8.751,0v.09a4.376,4.376,0,0,1-4.376,4.376m0-18.038A4.375,4.375,0,0,1,0,223.439v-.089a4.376,4.376,0,1,1,8.751,0v.089a4.375,4.375,0,0,1-4.376,4.376m0-18.038A4.375,4.375,0,0,1,0,205.4v-.089a4.376,4.376,0,1,1,8.751,0v.089a4.375,4.375,0,0,1-4.376,4.376m0-18.038A4.375,4.375,0,0,1,0,187.363v-.09a4.376,4.376,0,0,1,8.751,0v.09a4.375,4.375,0,0,1-4.376,4.376m0-18.038A4.375,4.375,0,0,1,0,169.326v-.089a4.376,4.376,0,1,1,8.751,0v.089A4.375,4.375,0,0,1,4.376,173.7m0-18.038A4.375,4.375,0,0,1,0,151.288V151.2a4.376,4.376,0,1,1,8.751,0v.089a4.375,4.375,0,0,1-4.376,4.376m0-18.038A4.375,4.375,0,0,1,0,133.25v-.09a4.376,4.376,0,1,1,8.751,0v.09a4.375,4.375,0,0,1-4.376,4.376m0-18.037A4.376,4.376,0,0,1,0,115.214v-.09a4.376,4.376,0,1,1,8.751,0v.09a4.376,4.376,0,0,1-4.376,4.376m0-18.039A4.375,4.375,0,0,1,0,97.175v-.089a4.376,4.376,0,1,1,8.751,0v.089a4.375,4.375,0,0,1-4.376,4.376m0-18.038A4.375,4.375,0,0,1,0,79.138v-.09a4.376,4.376,0,1,1,8.751,0v.09a4.375,4.375,0,0,1-4.376,4.376m0-18.038A4.376,4.376,0,0,1,0,61.1v-.09a4.376,4.376,0,0,1,8.751,0v.09a4.376,4.376,0,0,1-4.376,4.376m0-18.038A4.375,4.375,0,0,1,0,43.062v-.089a4.376,4.376,0,1,1,8.751,0v.089a4.375,4.375,0,0,1-4.376,4.376m0-18.038A4.375,4.375,0,0,1,0,25.025v-.09a4.376,4.376,0,1,1,8.751,0v.09A4.375,4.375,0,0,1,4.376,29.4" transform="translate(1731 3689.432)" fill="rgba(64,69,95,0.1)"/><path d="M4.376,379.762a4.386,4.386,0,1,1,4.376-4.419v.044a4.375,4.375,0,0,1-4.376,4.376" transform="translate(1731 3645.665)" fill="rgba(64,69,95,0.1)"/><path d="M25.709,29.165a4.357,4.357,0,0,1-4.376-4.354,4.387,4.387,0,1,1,6.212,3.947,4.329,4.329,0,0,1-1.837.407" transform="translate(1728.335 3689.453)" fill="rgba(64,69,95,0.1)"/><path d="M25.709,320.54a4.375,4.375,0,0,1-4.376-4.376v-.09a4.376,4.376,0,1,1,8.751,0v.09a4.375,4.375,0,0,1-4.376,4.376m0-18.049a4.375,4.375,0,0,1-4.376-4.376v-.09a4.376,4.376,0,1,1,8.751,0v.09a4.375,4.375,0,0,1-4.376,4.376m0-18.049a4.375,4.375,0,0,1-4.376-4.376v-.09a4.376,4.376,0,0,1,8.751,0v.09a4.375,4.375,0,0,1-4.376,4.376m0-18.049a4.375,4.375,0,0,1-4.376-4.376v-.09a4.376,4.376,0,1,1,8.751,0v.09a4.375,4.375,0,0,1-4.376,4.376m0-18.049a4.375,4.375,0,0,1-4.376-4.376v-.09a4.376,4.376,0,1,1,8.751,0v.09a4.375,4.375,0,0,1-4.376,4.376m0-18.049a4.375,4.375,0,0,1-4.376-4.376v-.09a4.376,4.376,0,1,1,8.751,0v.09a4.375,4.375,0,0,1-4.376,4.376m0-18.049a4.375,4.375,0,0,1-4.376-4.376v-.09a4.376,4.376,0,1,1,8.751,0v.09a4.375,4.375,0,0,1-4.376,4.376m0-18.049a4.375,4.375,0,0,1-4.376-4.376v-.09a4.376,4.376,0,0,1,8.751,0v.09a4.375,4.375,0,0,1-4.376,4.376m0-18.049a4.375,4.375,0,0,1-4.376-4.376v-.09a4.376,4.376,0,1,1,8.751,0v.09a4.375,4.375,0,0,1-4.376,4.376m0-18.049a4.375,4.375,0,0,1-4.376-4.376v-.09a4.376,4.376,0,1,1,8.751,0v.09a4.375,4.375,0,0,1-4.376,4.376m0-18.049a4.375,4.375,0,0,1-4.376-4.376v-.09a4.376,4.376,0,1,1,8.751,0v.09a4.375,4.375,0,0,1-4.376,4.376m0-18.049a4.375,4.375,0,0,1-4.376-4.376v-.09a4.376,4.376,0,1,1,8.751,0v.09A4.375,4.375,0,0,1,25.709,122m0-18.049a4.375,4.375,0,0,1-4.376-4.376v-.09a4.376,4.376,0,0,1,8.751,0v.09a4.375,4.375,0,0,1-4.376,4.376m0-18.049a4.375,4.375,0,0,1-4.376-4.376v-.09a4.376,4.376,0,1,1,8.751,0v.09A4.375,4.375,0,0,1,25.709,85.9m0-18.049a4.375,4.375,0,0,1-4.376-4.376v-.09a4.376,4.376,0,0,1,8.751,0v.09a4.375,4.375,0,0,1-4.376,4.376m0-18.049a4.375,4.375,0,0,1-4.376-4.376v-.09a4.376,4.376,0,0,1,8.751,0v.09a4.375,4.375,0,0,1-4.376,4.376" transform="translate(1728.335 3686.884)" fill="rgba(64,69,95,0.1)"/><path d="M25.709,379.762a4.386,4.386,0,1,1,4.376-4.419v.044a4.375,4.375,0,0,1-4.376,4.376" transform="translate(1728.335 3645.665)" fill="rgba(64,69,95,0.1)"/><path d="M47.043,49.557A4.356,4.356,0,0,1,42.667,45.2a4.386,4.386,0,1,1,6.176,3.964,4.334,4.334,0,0,1-1.8.389" transform="translate(1725.671 3686.906)" fill="rgba(64,69,95,0.1)"/><path d="M47.043,323.076a4.375,4.375,0,0,1-4.376-4.376v-.089a4.376,4.376,0,1,1,8.751,0v.089a4.376,4.376,0,0,1-4.376,4.376m0-18.062a4.375,4.375,0,0,1-4.376-4.376v-.089a4.376,4.376,0,1,1,8.751,0v.089a4.376,4.376,0,0,1-4.376,4.376m0-18.061a4.375,4.375,0,0,1-4.376-4.376v-.09a4.376,4.376,0,1,1,8.751,0v.09a4.376,4.376,0,0,1-4.376,4.376m0-18.062a4.375,4.375,0,0,1-4.376-4.376v-.089a4.376,4.376,0,1,1,8.751,0v.089a4.376,4.376,0,0,1-4.376,4.376m0-18.061a4.375,4.375,0,0,1-4.376-4.376v-.09a4.376,4.376,0,1,1,8.751,0v.09a4.377,4.377,0,0,1-4.376,4.376m0-18.062a4.375,4.375,0,0,1-4.376-4.376v-.09a4.376,4.376,0,1,1,8.751,0v.09a4.376,4.376,0,0,1-4.376,4.376m0-18.062a4.375,4.375,0,0,1-4.376-4.376v-.089a4.376,4.376,0,1,1,8.751,0v.089a4.376,4.376,0,0,1-4.376,4.376m0-18.061a4.375,4.375,0,0,1-4.376-4.376v-.09a4.376,4.376,0,1,1,8.751,0v.09a4.377,4.377,0,0,1-4.376,4.376m0-18.061a4.375,4.375,0,0,1-4.376-4.376v-.091a4.376,4.376,0,1,1,8.751,0v.091a4.376,4.376,0,0,1-4.376,4.376m0-18.062a4.375,4.375,0,0,1-4.376-4.376v-.09a4.376,4.376,0,1,1,8.751,0v.09a4.376,4.376,0,0,1-4.376,4.376m0-18.061a4.375,4.375,0,0,1-4.376-4.376v-.09a4.376,4.376,0,1,1,8.751,0v.09a4.377,4.377,0,0,1-4.376,4.376m0-18.062a4.375,4.375,0,0,1-4.376-4.376v-.09a4.376,4.376,0,1,1,8.751,0v.09a4.376,4.376,0,0,1-4.376,4.376m0-18.062a4.375,4.375,0,0,1-4.376-4.376v-.089a4.376,4.376,0,0,1,8.751,0v.089a4.376,4.376,0,0,1-4.376,4.376m0-18.061A4.375,4.375,0,0,1,42.667,83.9v-.09a4.376,4.376,0,1,1,8.751,0v.09a4.377,4.377,0,0,1-4.376,4.376m0-18.062a4.375,4.375,0,0,1-4.376-4.376v-.09a4.376,4.376,0,1,1,8.751,0v.09a4.376,4.376,0,0,1-4.376,4.376" transform="translate(1725.671 3684.335)" fill="rgba(64,69,95,0.1)"/><path d="M47.043,379.762a4.386,4.386,0,1,1,4.376-4.419v.044a4.376,4.376,0,0,1-4.376,4.376" transform="translate(1725.671 3645.665)" fill="rgba(64,69,95,0.1)"/><path d="M68.376,69.95A4.358,4.358,0,0,1,64,65.6a4.387,4.387,0,1,1,6.176,3.964,4.335,4.335,0,0,1-1.8.39" transform="translate(1723.007 3684.359)" fill="rgba(64,69,95,0.1)"/><path d="M68.376,325.611A4.375,4.375,0,0,1,64,321.235v-.089a4.376,4.376,0,1,1,8.751,0v.089a4.375,4.375,0,0,1-4.376,4.376m0-18.076A4.375,4.375,0,0,1,64,303.159v-.089a4.376,4.376,0,0,1,8.751,0v.089a4.375,4.375,0,0,1-4.376,4.375m0-18.076A4.375,4.375,0,0,1,64,285.083v-.09a4.376,4.376,0,0,1,8.751,0v.09a4.375,4.375,0,0,1-4.376,4.376m0-18.076A4.376,4.376,0,0,1,64,267.007v-.09a4.376,4.376,0,0,1,8.751,0v.09a4.376,4.376,0,0,1-4.376,4.376m0-18.076A4.375,4.375,0,0,1,64,248.931v-.09a4.376,4.376,0,1,1,8.751,0v.09a4.375,4.375,0,0,1-4.376,4.376m0-18.076A4.375,4.375,0,0,1,64,230.855v-.09a4.376,4.376,0,1,1,8.751,0v.09a4.375,4.375,0,0,1-4.376,4.376m0-18.076A4.376,4.376,0,0,1,64,212.779v-.09a4.376,4.376,0,0,1,8.751,0v.09a4.376,4.376,0,0,1-4.376,4.376m0-18.076A4.376,4.376,0,0,1,64,194.7v-.09a4.376,4.376,0,0,1,8.751,0v.09a4.376,4.376,0,0,1-4.376,4.376m0-18.077A4.375,4.375,0,0,1,64,176.625v-.089a4.376,4.376,0,0,1,8.751,0v.089A4.375,4.375,0,0,1,68.376,181m0-18.075A4.375,4.375,0,0,1,64,158.55v-.091a4.376,4.376,0,0,1,8.751,0v.091a4.375,4.375,0,0,1-4.376,4.376m0-18.076A4.376,4.376,0,0,1,64,140.474v-.091a4.376,4.376,0,0,1,8.751,0v.091a4.376,4.376,0,0,1-4.376,4.376m0-18.076A4.376,4.376,0,0,1,64,122.4v-.09a4.376,4.376,0,0,1,8.751,0v.09a4.376,4.376,0,0,1-4.376,4.376m0-18.077A4.375,4.375,0,0,1,64,104.321v-.089a4.376,4.376,0,1,1,8.751,0v.089a4.375,4.375,0,0,1-4.376,4.376m0-18.076A4.375,4.375,0,0,1,64,86.245v-.09a4.376,4.376,0,0,1,8.751,0v.09a4.375,4.375,0,0,1-4.376,4.376" transform="translate(1723.007 3681.786)" fill="rgba(64,69,95,0.1)"/><path d="M68.376,379.762a4.386,4.386,0,1,1,4.376-4.419v.044a4.375,4.375,0,0,1-4.376,4.376" transform="translate(1723.007 3645.665)" fill="rgba(64,69,95,0.1)"/><path d="M89.71,90.34a4.357,4.357,0,0,1-4.376-4.354,4.386,4.386,0,1,1,6.188,3.958,4.317,4.317,0,0,1-1.812.4" transform="translate(1720.342 3681.813)" fill="rgba(64,69,95,0.1)"/><path d="M89.71,328.143a4.376,4.376,0,0,1-4.376-4.376v-.09a4.376,4.376,0,1,1,8.751,0v.09a4.377,4.377,0,0,1-4.376,4.376m0-18.093a4.375,4.375,0,0,1-4.376-4.376v-.09a4.376,4.376,0,0,1,8.751,0v.09a4.376,4.376,0,0,1-4.376,4.376m0-18.093a4.375,4.375,0,0,1-4.376-4.376v-.09a4.376,4.376,0,0,1,8.751,0v.09a4.376,4.376,0,0,1-4.376,4.376m0-18.093a4.375,4.375,0,0,1-4.376-4.376v-.09a4.376,4.376,0,0,1,8.751,0v.09a4.376,4.376,0,0,1-4.376,4.376m0-18.093a4.375,4.375,0,0,1-4.376-4.376v-.09a4.376,4.376,0,0,1,8.751,0v.09a4.376,4.376,0,0,1-4.376,4.376m0-18.093a4.376,4.376,0,0,1-4.376-4.376v-.09a4.376,4.376,0,0,1,8.751,0v.09a4.377,4.377,0,0,1-4.376,4.376m0-18.093a4.375,4.375,0,0,1-4.376-4.376v-.09a4.376,4.376,0,0,1,8.751,0v.09a4.376,4.376,0,0,1-4.376,4.376m0-18.093a4.375,4.375,0,0,1-4.376-4.376v-.09a4.376,4.376,0,0,1,8.751,0v.09a4.376,4.376,0,0,1-4.376,4.376m0-18.093a4.375,4.375,0,0,1-4.376-4.376v-.089a4.376,4.376,0,0,1,8.751,0v.089A4.376,4.376,0,0,1,89.71,183.4m0-18.093a4.375,4.375,0,0,1-4.376-4.376v-.09a4.376,4.376,0,1,1,8.751,0v.09a4.376,4.376,0,0,1-4.376,4.376m0-18.092a4.376,4.376,0,0,1-4.376-4.376v-.091a4.376,4.376,0,0,1,8.751,0v.091a4.377,4.377,0,0,1-4.376,4.376m0-18.094a4.375,4.375,0,0,1-4.376-4.376v-.09a4.376,4.376,0,0,1,8.751,0v.09a4.376,4.376,0,0,1-4.376,4.376m0-18.093a4.375,4.375,0,0,1-4.376-4.376v-.09a4.376,4.376,0,0,1,8.751,0v.09a4.376,4.376,0,0,1-4.376,4.376" transform="translate(1720.342 3679.237)" fill="rgba(64,69,95,0.1)"/><path d="M89.71,379.762a4.386,4.386,0,1,1,4.376-4.419v.044a4.376,4.376,0,0,1-4.376,4.376" transform="translate(1720.342 3645.665)" fill="rgba(64,69,95,0.1)"/><path d="M111.042,110.733a4.358,4.358,0,0,1-4.376-4.355,4.387,4.387,0,1,1,6.176,3.964,4.335,4.335,0,0,1-1.8.39" transform="translate(1717.678 3679.266)" fill="rgba(64,69,95,0.1)"/><path d="M111.042,330.674a4.375,4.375,0,0,1-4.376-4.376v-.09a4.376,4.376,0,1,1,8.751,0v.09a4.375,4.375,0,0,1-4.376,4.376m0-18.112a4.376,4.376,0,0,1-4.376-4.376v-.09a4.376,4.376,0,1,1,8.751,0v.09a4.376,4.376,0,0,1-4.376,4.376m0-18.112a4.375,4.375,0,0,1-4.376-4.376v-.09a4.376,4.376,0,0,1,8.751,0v.09a4.375,4.375,0,0,1-4.376,4.376m0-18.112a4.375,4.375,0,0,1-4.376-4.376v-.089a4.376,4.376,0,1,1,8.751,0v.089a4.375,4.375,0,0,1-4.376,4.376m0-18.111a4.375,4.375,0,0,1-4.376-4.376v-.091a4.376,4.376,0,1,1,8.751,0v.091a4.375,4.375,0,0,1-4.376,4.376m0-18.112a4.376,4.376,0,0,1-4.376-4.376v-.09a4.376,4.376,0,1,1,8.751,0v.09a4.376,4.376,0,0,1-4.376,4.376m0-18.112a4.375,4.375,0,0,1-4.376-4.376v-.09a4.376,4.376,0,1,1,8.751,0v.09A4.375,4.375,0,0,1,111.042,222m0-18.112a4.375,4.375,0,0,1-4.376-4.376v-.089a4.376,4.376,0,1,1,8.751,0v.089a4.375,4.375,0,0,1-4.376,4.376m0-18.111a4.375,4.375,0,0,1-4.376-4.376v-.091a4.376,4.376,0,0,1,8.751,0v.091a4.375,4.375,0,0,1-4.376,4.376m0-18.112a4.376,4.376,0,0,1-4.376-4.376v-.09a4.376,4.376,0,1,1,8.751,0v.09a4.376,4.376,0,0,1-4.376,4.376m0-18.112a4.375,4.375,0,0,1-4.376-4.376v-.09a4.376,4.376,0,0,1,8.751,0v.09a4.375,4.375,0,0,1-4.376,4.376m0-18.112a4.375,4.375,0,0,1-4.376-4.376v-.09a4.376,4.376,0,0,1,8.751,0v.09a4.375,4.375,0,0,1-4.376,4.376" transform="translate(1717.678 3676.688)" fill="rgba(64,69,95,0.1)"/><path d="M111.042,379.762a4.386,4.386,0,1,1,4.376-4.419v.044a4.375,4.375,0,0,1-4.376,4.376" transform="translate(1717.678 3645.665)" fill="rgba(64,69,95,0.1)"/><path d="M132.376,131.124A4.357,4.357,0,0,1,128,126.77a4.387,4.387,0,1,1,8.773-.044,4.369,4.369,0,0,1-2.573,4,4.315,4.315,0,0,1-1.825.4" transform="translate(1715.013 3676.719)" fill="rgba(64,69,95,0.1)"/><path d="M132.376,333.2A4.376,4.376,0,0,1,128,328.827v-.091a4.376,4.376,0,1,1,8.751,0v.091a4.376,4.376,0,0,1-4.376,4.376m0-18.135A4.375,4.375,0,0,1,128,310.692v-.09a4.376,4.376,0,0,1,8.751,0v.09a4.375,4.375,0,0,1-4.376,4.376m0-18.134A4.375,4.375,0,0,1,128,292.559v-.09a4.376,4.376,0,1,1,8.751,0v.09a4.375,4.375,0,0,1-4.376,4.376m0-18.134A4.376,4.376,0,0,1,128,274.425v-.09a4.376,4.376,0,0,1,8.751,0v.09a4.376,4.376,0,0,1-4.376,4.376m0-18.134A4.375,4.375,0,0,1,128,256.291V256.2a4.376,4.376,0,0,1,8.751,0v.091a4.375,4.375,0,0,1-4.376,4.376m0-18.135A4.375,4.375,0,0,1,128,238.156v-.089a4.376,4.376,0,1,1,8.751,0v.089a4.375,4.375,0,0,1-4.376,4.376m0-18.133A4.376,4.376,0,0,1,128,220.023v-.091a4.376,4.376,0,1,1,8.751,0v.091a4.376,4.376,0,0,1-4.376,4.376m0-18.135A4.375,4.375,0,0,1,128,201.888v-.09a4.376,4.376,0,0,1,8.751,0v.09a4.375,4.375,0,0,1-4.376,4.376m0-18.134A4.375,4.375,0,0,1,128,183.754v-.09a4.376,4.376,0,1,1,8.751,0v.09a4.375,4.375,0,0,1-4.376,4.376m0-18.134A4.376,4.376,0,0,1,128,165.62v-.09a4.376,4.376,0,0,1,8.751,0v.09A4.376,4.376,0,0,1,132.376,170m0-18.134A4.375,4.375,0,0,1,128,147.487V147.4a4.376,4.376,0,1,1,8.751,0v.091a4.375,4.375,0,0,1-4.376,4.376" transform="translate(1715.013 3674.137)" fill="rgba(64,69,95,0.1)"/><path d="M132.376,379.762a4.386,4.386,0,1,1,4.376-4.419v.044a4.375,4.375,0,0,1-4.376,4.376" transform="translate(1715.013 3645.665)" fill="rgba(64,69,95,0.1)"/><g transform="translate(1731 3458.001)"><path d="M4.4,0A4.358,4.358,0,0,1,8.773,4.356,4.387,4.387,0,1,1,2.6.391,4.335,4.335,0,0,1,4.4,0" transform="translate(112.013 324.652)" fill="rgba(64,69,95,0.1)"/><path d="M4.376,20.559a4.375,4.375,0,0,1,4.376,4.376v.09a4.376,4.376,0,1,1-8.751,0v-.09a4.375,4.375,0,0,1,4.376-4.376m0,18.037a4.376,4.376,0,0,1,4.376,4.376v.09a4.376,4.376,0,1,1-8.751,0v-.09A4.376,4.376,0,0,1,4.376,38.6m0,18.038A4.375,4.375,0,0,1,8.751,61.01V61.1A4.376,4.376,0,1,1,0,61.1V61.01a4.375,4.375,0,0,1,4.376-4.376m0,18.038a4.375,4.375,0,0,1,4.376,4.376v.089a4.376,4.376,0,1,1-8.751,0v-.089a4.375,4.375,0,0,1,4.376-4.376m0,18.038a4.376,4.376,0,0,1,4.376,4.376v.09a4.376,4.376,0,1,1-8.751,0v-.09A4.376,4.376,0,0,1,4.376,92.71m0,18.038a4.375,4.375,0,0,1,4.376,4.376v.089a4.376,4.376,0,1,1-8.751,0v-.089a4.375,4.375,0,0,1,4.376-4.376m0,18.038a4.375,4.375,0,0,1,4.376,4.376v.089a4.376,4.376,0,1,1-8.751,0v-.089a4.375,4.375,0,0,1,4.376-4.376m0,18.038A4.375,4.375,0,0,1,8.751,151.2v.09a4.376,4.376,0,0,1-8.751,0v-.09a4.375,4.375,0,0,1,4.376-4.376m0,18.038a4.375,4.375,0,0,1,4.376,4.376v.089a4.376,4.376,0,1,1-8.751,0v-.089a4.375,4.375,0,0,1,4.376-4.376m0,18.038a4.375,4.375,0,0,1,4.376,4.376v.089a4.376,4.376,0,1,1-8.751,0v-.089A4.375,4.375,0,0,1,4.376,182.9m0,18.038a4.375,4.375,0,0,1,4.376,4.376v.09A4.376,4.376,0,1,1,0,205.4v-.09a4.375,4.375,0,0,1,4.376-4.376m0,18.037a4.376,4.376,0,0,1,4.376,4.376v.09a4.376,4.376,0,1,1-8.751,0v-.09a4.376,4.376,0,0,1,4.376-4.376m0,18.039a4.375,4.375,0,0,1,4.376,4.376v.089a4.376,4.376,0,1,1-8.751,0v-.089a4.375,4.375,0,0,1,4.376-4.376m0,18.038a4.375,4.375,0,0,1,4.376,4.376v.09a4.376,4.376,0,1,1-8.751,0v-.09a4.375,4.375,0,0,1,4.376-4.376m0,18.038a4.376,4.376,0,0,1,4.376,4.376v.09a4.376,4.376,0,1,1-8.751,0v-.09a4.376,4.376,0,0,1,4.376-4.376m0,18.038A4.375,4.375,0,0,1,8.751,295.5v.089a4.376,4.376,0,1,1-8.751,0V295.5a4.375,4.375,0,0,1,4.376-4.376m0,18.038a4.375,4.375,0,0,1,4.376,4.376v.09a4.376,4.376,0,1,1-8.751,0v-.09a4.375,4.375,0,0,1,4.376-4.376" transform="translate(112.035 -2.567)" fill="rgba(64,69,95,0.1)"/><path d="M4.376,370.989A4.386,4.386,0,1,1,0,375.408v-.044a4.375,4.375,0,0,1,4.376-4.376" transform="translate(112.035 -370.989)" fill="rgba(64,69,95,0.1)"/><path d="M25.73,20.392a4.357,4.357,0,0,1,4.376,4.354A4.387,4.387,0,1,1,23.894,20.8a4.329,4.329,0,0,1,1.837-.407" transform="translate(72.012 286.417)" fill="rgba(64,69,95,0.1)"/><path d="M25.709,40.964a4.375,4.375,0,0,1,4.376,4.376v.09a4.376,4.376,0,1,1-8.751,0v-.09a4.375,4.375,0,0,1,4.376-4.376m0,18.049a4.375,4.375,0,0,1,4.376,4.376v.09a4.376,4.376,0,1,1-8.751,0v-.09a4.375,4.375,0,0,1,4.376-4.376m0,18.049a4.375,4.375,0,0,1,4.376,4.376v.09a4.376,4.376,0,0,1-8.751,0v-.09a4.375,4.375,0,0,1,4.376-4.376m0,18.049a4.375,4.375,0,0,1,4.376,4.376v.09a4.376,4.376,0,1,1-8.751,0v-.09a4.375,4.375,0,0,1,4.376-4.376m0,18.049a4.375,4.375,0,0,1,4.376,4.376v.09a4.376,4.376,0,1,1-8.751,0v-.09a4.375,4.375,0,0,1,4.376-4.376m0,18.049a4.375,4.375,0,0,1,4.376,4.376v.09a4.376,4.376,0,1,1-8.751,0v-.09a4.375,4.375,0,0,1,4.376-4.376m0,18.049a4.375,4.375,0,0,1,4.376,4.376v.09a4.376,4.376,0,1,1-8.751,0v-.09a4.375,4.375,0,0,1,4.376-4.376m0,18.049a4.375,4.375,0,0,1,4.376,4.376v.09a4.376,4.376,0,0,1-8.751,0v-.09a4.375,4.375,0,0,1,4.376-4.376m0,18.049a4.375,4.375,0,0,1,4.376,4.376v.09a4.376,4.376,0,1,1-8.751,0v-.09a4.375,4.375,0,0,1,4.376-4.376m0,18.049a4.375,4.375,0,0,1,4.376,4.376v.09a4.376,4.376,0,1,1-8.751,0v-.09a4.375,4.375,0,0,1,4.376-4.376m0,18.049a4.375,4.375,0,0,1,4.376,4.376v.09a4.376,4.376,0,1,1-8.751,0v-.09a4.375,4.375,0,0,1,4.376-4.376m0,18.049a4.375,4.375,0,0,1,4.376,4.376v.09a4.376,4.376,0,1,1-8.751,0v-.09a4.375,4.375,0,0,1,4.376-4.376m0,18.049a4.375,4.375,0,0,1,4.376,4.376v.09a4.376,4.376,0,0,1-8.751,0v-.09a4.375,4.375,0,0,1,4.376-4.376m0,18.049a4.375,4.375,0,0,1,4.376,4.376v.09a4.376,4.376,0,1,1-8.751,0v-.09a4.375,4.375,0,0,1,4.376-4.376m0,18.049a4.375,4.375,0,0,1,4.376,4.376v.09a4.376,4.376,0,0,1-8.751,0v-.09a4.375,4.375,0,0,1,4.376-4.376m0,18.049a4.375,4.375,0,0,1,4.376,4.376v.09a4.376,4.376,0,0,1-8.751,0v-.09a4.375,4.375,0,0,1,4.376-4.376" transform="translate(72.034 -22.961)" fill="rgba(64,69,95,0.1)"/><path d="M25.709,370.989a4.386,4.386,0,1,1-4.376,4.419v-.044a4.375,4.375,0,0,1,4.376-4.376" transform="translate(72.034 -370.989)" fill="rgba(64,69,95,0.1)"/><path d="M47.064,40.785a4.356,4.356,0,0,1,4.376,4.354,4.386,4.386,0,1,1-6.176-3.964,4.334,4.334,0,0,1,1.8-.389" transform="translate(32.009 248.179)" fill="rgba(64,69,95,0.1)"/><path d="M47.043,61.37a4.375,4.375,0,0,1,4.376,4.376v.089a4.376,4.376,0,0,1-8.751,0v-.089a4.376,4.376,0,0,1,4.376-4.376m0,18.062a4.375,4.375,0,0,1,4.376,4.376V83.9a4.376,4.376,0,0,1-8.751,0v-.089a4.376,4.376,0,0,1,4.376-4.376m0,18.061a4.375,4.375,0,0,1,4.376,4.376v.09a4.376,4.376,0,1,1-8.751,0v-.09a4.376,4.376,0,0,1,4.376-4.376m0,18.062a4.375,4.375,0,0,1,4.376,4.376v.089a4.376,4.376,0,0,1-8.751,0v-.089a4.376,4.376,0,0,1,4.376-4.376m0,18.061a4.375,4.375,0,0,1,4.376,4.376v.09a4.376,4.376,0,0,1-8.751,0v-.09a4.377,4.377,0,0,1,4.376-4.376m0,18.062a4.375,4.375,0,0,1,4.376,4.376v.09a4.376,4.376,0,0,1-8.751,0v-.09a4.376,4.376,0,0,1,4.376-4.376m0,18.062a4.375,4.375,0,0,1,4.376,4.376v.089a4.376,4.376,0,0,1-8.751,0v-.089a4.376,4.376,0,0,1,4.376-4.376m0,18.061a4.375,4.375,0,0,1,4.376,4.376v.09a4.376,4.376,0,1,1-8.751,0v-.09a4.377,4.377,0,0,1,4.376-4.376m0,18.061a4.375,4.375,0,0,1,4.376,4.376v.091a4.376,4.376,0,1,1-8.751,0v-.091a4.376,4.376,0,0,1,4.376-4.376m0,18.062a4.375,4.375,0,0,1,4.376,4.376v.09a4.376,4.376,0,1,1-8.751,0v-.09a4.376,4.376,0,0,1,4.376-4.376m0,18.061a4.375,4.375,0,0,1,4.376,4.376v.09a4.376,4.376,0,1,1-8.751,0v-.09a4.377,4.377,0,0,1,4.376-4.376m0,18.062a4.375,4.375,0,0,1,4.376,4.376v.09a4.376,4.376,0,1,1-8.751,0v-.09a4.376,4.376,0,0,1,4.376-4.376m0,18.062a4.375,4.375,0,0,1,4.376,4.376v.089a4.376,4.376,0,0,1-8.751,0v-.089a4.376,4.376,0,0,1,4.376-4.376m0,18.061a4.375,4.375,0,0,1,4.376,4.376v.09a4.376,4.376,0,1,1-8.751,0v-.09a4.377,4.377,0,0,1,4.376-4.376m0,18.062a4.375,4.375,0,0,1,4.376,4.376v.09a4.376,4.376,0,1,1-8.751,0v-.09a4.376,4.376,0,0,1,4.376-4.376" transform="translate(32.03 -43.354)" fill="rgba(64,69,95,0.1)"/><path d="M47.043,370.989a4.386,4.386,0,1,1-4.376,4.419v-.044a4.376,4.376,0,0,1,4.376-4.376" transform="translate(32.03 -370.989)" fill="rgba(64,69,95,0.1)"/><path d="M68.4,61.177a4.358,4.358,0,0,1,4.376,4.355A4.387,4.387,0,1,1,66.6,61.567a4.335,4.335,0,0,1,1.8-.39" transform="translate(-7.993 209.941)" fill="rgba(64,69,95,0.1)"/><path d="M68.376,81.779a4.375,4.375,0,0,1,4.376,4.376v.089a4.376,4.376,0,1,1-8.751,0v-.089a4.375,4.375,0,0,1,4.376-4.376m0,18.076a4.375,4.375,0,0,1,4.376,4.375v.089a4.376,4.376,0,1,1-8.751,0v-.089a4.375,4.375,0,0,1,4.376-4.375m0,18.076a4.375,4.375,0,0,1,4.376,4.376v.09a4.376,4.376,0,1,1-8.751,0v-.09a4.375,4.375,0,0,1,4.376-4.376m0,18.076a4.376,4.376,0,0,1,4.376,4.376v.09a4.376,4.376,0,0,1-8.751,0v-.09a4.376,4.376,0,0,1,4.376-4.376m0,18.076a4.375,4.375,0,0,1,4.376,4.376v.09a4.376,4.376,0,0,1-8.751,0v-.09a4.375,4.375,0,0,1,4.376-4.376m0,18.076a4.375,4.375,0,0,1,4.376,4.376v.09a4.376,4.376,0,0,1-8.751,0v-.09a4.375,4.375,0,0,1,4.376-4.376m0,18.076a4.376,4.376,0,0,1,4.376,4.376v.09a4.376,4.376,0,0,1-8.751,0v-.09a4.376,4.376,0,0,1,4.376-4.376m0,18.076a4.376,4.376,0,0,1,4.376,4.376v.09a4.376,4.376,0,0,1-8.751,0v-.09a4.376,4.376,0,0,1,4.376-4.376m0,18.077a4.375,4.375,0,0,1,4.376,4.376v.089a4.376,4.376,0,0,1-8.751,0v-.089a4.375,4.375,0,0,1,4.376-4.376m0,18.075a4.375,4.375,0,0,1,4.376,4.376v.091a4.376,4.376,0,0,1-8.751,0v-.091a4.375,4.375,0,0,1,4.376-4.376m0,18.076a4.376,4.376,0,0,1,4.376,4.376v.091a4.376,4.376,0,0,1-8.751,0v-.091a4.376,4.376,0,0,1,4.376-4.376m0,18.076a4.376,4.376,0,0,1,4.376,4.376v.09a4.376,4.376,0,0,1-8.751,0v-.09a4.376,4.376,0,0,1,4.376-4.376m0,18.077a4.375,4.375,0,0,1,4.376,4.376v.089a4.376,4.376,0,0,1-8.751,0v-.089a4.375,4.375,0,0,1,4.376-4.376m0,18.076a4.375,4.375,0,0,1,4.376,4.376v.09a4.376,4.376,0,1,1-8.751,0v-.09a4.375,4.375,0,0,1,4.376-4.376" transform="translate(-7.972 -63.749)" fill="rgba(64,69,95,0.1)"/><path d="M68.376,370.989A4.386,4.386,0,1,1,64,375.408v-.044a4.375,4.375,0,0,1,4.376-4.376" transform="translate(-7.972 -370.989)" fill="rgba(64,69,95,0.1)"/><path d="M89.731,81.568a4.357,4.357,0,0,1,4.376,4.354,4.386,4.386,0,1,1-6.188-3.958,4.317,4.317,0,0,1,1.812-.4" transform="translate(-47.996 171.706)" fill="rgba(64,69,95,0.1)"/><path d="M89.71,102.189a4.376,4.376,0,0,1,4.376,4.376v.09a4.376,4.376,0,1,1-8.751,0v-.09a4.377,4.377,0,0,1,4.376-4.376m0,18.093a4.375,4.375,0,0,1,4.376,4.376v.09a4.376,4.376,0,1,1-8.751,0v-.09a4.376,4.376,0,0,1,4.376-4.376m0,18.093a4.375,4.375,0,0,1,4.376,4.376v.09a4.376,4.376,0,1,1-8.751,0v-.09a4.376,4.376,0,0,1,4.376-4.376m0,18.093a4.375,4.375,0,0,1,4.376,4.376v.09a4.376,4.376,0,0,1-8.751,0v-.09a4.376,4.376,0,0,1,4.376-4.376m0,18.093a4.375,4.375,0,0,1,4.376,4.376v.09a4.376,4.376,0,0,1-8.751,0v-.09a4.376,4.376,0,0,1,4.376-4.376m0,18.093a4.376,4.376,0,0,1,4.376,4.376v.09a4.376,4.376,0,0,1-8.751,0v-.09a4.377,4.377,0,0,1,4.376-4.376m0,18.093a4.375,4.375,0,0,1,4.376,4.376v.09a4.376,4.376,0,0,1-8.751,0v-.09a4.376,4.376,0,0,1,4.376-4.376m0,18.093a4.375,4.375,0,0,1,4.376,4.376v.09a4.376,4.376,0,0,1-8.751,0v-.09a4.376,4.376,0,0,1,4.376-4.376m0,18.093a4.375,4.375,0,0,1,4.376,4.376v.089a4.376,4.376,0,0,1-8.751,0v-.089a4.376,4.376,0,0,1,4.376-4.376m0,18.093a4.375,4.375,0,0,1,4.376,4.375v.09a4.376,4.376,0,1,1-8.751,0v-.09a4.376,4.376,0,0,1,4.376-4.375m0,18.092a4.376,4.376,0,0,1,4.376,4.376v.091a4.376,4.376,0,1,1-8.751,0v-.091a4.377,4.377,0,0,1,4.376-4.376m0,18.094a4.375,4.375,0,0,1,4.376,4.375v.09a4.376,4.376,0,0,1-8.751,0v-.09a4.376,4.376,0,0,1,4.376-4.375m0,18.093a4.375,4.375,0,0,1,4.376,4.376v.09a4.376,4.376,0,1,1-8.751,0v-.09A4.376,4.376,0,0,1,89.71,319.3" transform="translate(-47.975 -84.143)" fill="rgba(64,69,95,0.1)"/><path d="M89.71,370.989a4.386,4.386,0,1,1-4.376,4.419v-.044a4.376,4.376,0,0,1,4.376-4.376" transform="translate(-47.975 -370.989)" fill="rgba(64,69,95,0.1)"/><path d="M111.063,101.96a4.358,4.358,0,0,1,4.376,4.355,4.387,4.387,0,1,1-6.176-3.964,4.335,4.335,0,0,1,1.8-.39" transform="translate(-87.997 133.468)" fill="rgba(64,69,95,0.1)"/><path d="M111.042,122.6a4.375,4.375,0,0,1,4.376,4.376v.09a4.376,4.376,0,1,1-8.751,0v-.09a4.375,4.375,0,0,1,4.376-4.376m0,18.112a4.376,4.376,0,0,1,4.376,4.376v.09a4.376,4.376,0,1,1-8.751,0v-.09a4.376,4.376,0,0,1,4.376-4.376m0,18.112a4.375,4.375,0,0,1,4.376,4.376v.09a4.376,4.376,0,0,1-8.751,0v-.09a4.375,4.375,0,0,1,4.376-4.376m0,18.112a4.375,4.375,0,0,1,4.376,4.376v.089a4.376,4.376,0,1,1-8.751,0v-.089a4.375,4.375,0,0,1,4.376-4.376m0,18.111a4.375,4.375,0,0,1,4.376,4.376v.091a4.376,4.376,0,1,1-8.751,0v-.091a4.375,4.375,0,0,1,4.376-4.376m0,18.112a4.376,4.376,0,0,1,4.376,4.376v.09a4.376,4.376,0,1,1-8.751,0v-.09a4.376,4.376,0,0,1,4.376-4.376m0,18.112a4.375,4.375,0,0,1,4.376,4.376v.09a4.376,4.376,0,1,1-8.751,0v-.09a4.375,4.375,0,0,1,4.376-4.376m0,18.112a4.375,4.375,0,0,1,4.376,4.376v.089a4.376,4.376,0,0,1-8.751,0v-.089a4.375,4.375,0,0,1,4.376-4.376m0,18.111a4.375,4.375,0,0,1,4.376,4.375v.091a4.376,4.376,0,1,1-8.751,0v-.091a4.375,4.375,0,0,1,4.376-4.375m0,18.112a4.376,4.376,0,0,1,4.376,4.376v.09a4.376,4.376,0,1,1-8.751,0v-.09a4.376,4.376,0,0,1,4.376-4.376m0,18.112a4.375,4.375,0,0,1,4.376,4.375v.09a4.376,4.376,0,0,1-8.751,0v-.09a4.375,4.375,0,0,1,4.376-4.375m0,18.112a4.375,4.375,0,0,1,4.376,4.376v.09a4.376,4.376,0,1,1-8.751,0v-.09a4.375,4.375,0,0,1,4.376-4.376" transform="translate(-87.975 -104.536)" fill="rgba(64,69,95,0.1)"/><path d="M111.042,370.989a4.386,4.386,0,1,1-4.376,4.419v-.044a4.375,4.375,0,0,1,4.376-4.376" transform="translate(-87.975 -370.989)" fill="rgba(64,69,95,0.1)"/><path d="M132.4,122.351a4.357,4.357,0,0,1,4.376,4.354,4.387,4.387,0,1,1-8.773.044,4.369,4.369,0,0,1,2.573-4,4.315,4.315,0,0,1,1.825-.4" transform="translate(-128 95.233)" fill="rgba(64,69,95,0.1)"/><path d="M132.376,143.02a4.376,4.376,0,0,1,4.376,4.376v.091a4.376,4.376,0,1,1-8.751,0V147.4a4.376,4.376,0,0,1,4.376-4.376m0,18.135a4.375,4.375,0,0,1,4.376,4.376v.09a4.376,4.376,0,0,1-8.751,0v-.09a4.375,4.375,0,0,1,4.376-4.376m0,18.134a4.375,4.375,0,0,1,4.376,4.376v.09a4.376,4.376,0,1,1-8.751,0v-.09a4.375,4.375,0,0,1,4.376-4.376m0,18.134a4.376,4.376,0,0,1,4.376,4.376v.09a4.376,4.376,0,0,1-8.751,0v-.09a4.376,4.376,0,0,1,4.376-4.376m0,18.134a4.375,4.375,0,0,1,4.376,4.376v.091a4.376,4.376,0,0,1-8.751,0v-.091a4.375,4.375,0,0,1,4.376-4.376m0,18.135a4.375,4.375,0,0,1,4.376,4.376v.089a4.376,4.376,0,0,1-8.751,0v-.089a4.375,4.375,0,0,1,4.376-4.376m0,18.133a4.376,4.376,0,0,1,4.376,4.376v.091a4.376,4.376,0,0,1-8.751,0V256.2a4.376,4.376,0,0,1,4.376-4.376m0,18.135a4.375,4.375,0,0,1,4.376,4.376v.09a4.376,4.376,0,0,1-8.751,0v-.09a4.375,4.375,0,0,1,4.376-4.376m0,18.134a4.375,4.375,0,0,1,4.376,4.375v.09a4.376,4.376,0,0,1-8.751,0v-.09a4.375,4.375,0,0,1,4.376-4.375m0,18.134a4.376,4.376,0,0,1,4.376,4.376v.09a4.376,4.376,0,0,1-8.751,0v-.09a4.376,4.376,0,0,1,4.376-4.376m0,18.134a4.375,4.375,0,0,1,4.376,4.376v.091a4.376,4.376,0,0,1-8.751,0v-.091a4.375,4.375,0,0,1,4.376-4.376" transform="translate(-127.978 -124.933)" fill="rgba(64,69,95,0.1)"/><path d="M132.376,370.989A4.386,4.386,0,1,1,128,375.408v-.044a4.375,4.375,0,0,1,4.376-4.376" transform="translate(-127.978 -370.989)" fill="rgba(64,69,95,0.1)"/></g></g></svg>