<svg id="Component_33_1" data-name="Component 33 – 1" xmlns="http://www.w3.org/2000/svg" xmlns:xlink="http://www.w3.org/1999/xlink" width="59" height="112" viewBox="0 0 59 112">
  <defs>
    <clipPath id="clip-path">
      <rect id="Rectangle_197" data-name="Rectangle 197" width="59" height="112" transform="translate(1720.459 2585)" fill="#fff" stroke="#707070" stroke-width="1"/>
    </clipPath>
  </defs>
  <g id="Mask_Group_15" data-name="Mask Group 15" transform="translate(-1720.459 -2585)" clip-path="url(#clip-path)">
    <g id="Polygon_13" data-name="Polygon 13" transform="translate(1729.568 2598.776)" fill="none">
      <path d="M61.51,0a12,12,0,0,1,10.4,6.019L87.831,33.708a12,12,0,0,1,0,11.962L71.913,73.359a12,12,0,0,1-10.4,6.019H29.76a12,12,0,0,1-10.4-6.019L3.438,45.67a12,12,0,0,1,0-11.962L19.357,6.019A12,12,0,0,1,29.76,0Z" stroke="none"/>
      <path d="M 29.7603645324707 11.99999237060547 L 29.7603645324707 12.00001525878906 L 13.84175109863281 39.68901443481445 L 29.7603645324707 67.37808227539062 L 61.50954818725586 67.37808227539062 L 77.42813873291016 39.68901443481445 L 61.50954818725586 11.99999237060547 L 29.7603645324707 11.99999237060547 M 29.7603645324707 -7.62939453125e-06 L 61.50954818725586 -7.62939453125e-06 C 65.80459594726562 -7.62939453125e-06 69.77214050292969 2.295516967773438 71.912841796875 6.019081115722656 L 87.83143615722656 33.70810699462891 C 89.96038818359375 37.41122055053711 89.96038818359375 41.96685409545898 87.83143615722656 45.66994476318359 L 71.912841796875 73.35899353027344 C 69.77214050292969 77.08253479003906 65.80459594726562 79.37805938720703 61.50954818725586 79.37808227539062 L 29.7603645324707 79.37808227539062 C 25.46531677246094 79.37805938720703 21.49777221679688 77.08253479003906 19.35707092285156 73.35899353027344 L 3.438453674316406 45.66994476318359 C 1.309524536132812 41.96685409545898 1.309524536132812 37.41122055053711 3.438453674316406 33.70810699462891 L 19.35707092285156 6.019081115722656 C 21.49777221679688 2.295516967773438 25.46531677246094 -7.62939453125e-06 29.7603645324707 -7.62939453125e-06 Z" stroke="none" fill="#00e1f9"/>
    </g>
  </g>
</svg>
