<svg id="Component_17_1" data-name="Component 17 – 1" xmlns="http://www.w3.org/2000/svg" xmlns:xlink="http://www.w3.org/1999/xlink" width="251" height="93" viewBox="0 0 251 93">
  <defs>
    <filter id="Rectangle_213" x="-114" y="-61" width="479" height="321" filterUnits="userSpaceOnUse">
      <feOffset dy="53" input="SourceAlpha"/>
      <feGaussianBlur stdDeviation="38" result="blur"/>
      <feFlood flood-color="#5347e3" flood-opacity="0.224"/>
      <feComposite operator="in" in2="blur"/>
      <feComposite in="SourceGraphic"/>
    </filter>
    <clipPath id="clip-path">
      <g transform="matrix(1, 0, 0, 1, 0, 0)" filter="url(#Rectangle_213)">
        <path id="Rectangle_213-2" data-name="Rectangle 213" d="M0,0H251a0,0,0,0,1,0,0V63a30,30,0,0,1-30,30H0a0,0,0,0,1,0,0V0A0,0,0,0,1,0,0Z" transform="translate(1349 5973)" fill="#fff"/>
      </g>
    </clipPath>
  </defs>
  <g id="Mask_Group_21" data-name="Mask Group 21" transform="translate(-1349 -5973)" clip-path="url(#clip-path)">
    <g id="Polygon_16" data-name="Polygon 16" transform="translate(1365.185 5981.339)" fill="none">
      <path d="M223.307,0a12,12,0,0,1,10.4,6.019l69.851,121.5a12,12,0,0,1,0,11.962l-69.851,121.5a12,12,0,0,1-10.4,6.019H83.693a12,12,0,0,1-10.4-6.019L3.438,139.481a12,12,0,0,1,0-11.962L73.29,6.019A12,12,0,0,1,83.693,0Z" stroke="none"/>
      <path d="M 95.26445007324219 32 L 36.91140747070312 133.4999847412109 L 95.26431274414062 235 L 211.7356262207031 235 L 270.0885925292969 133.5000305175781 L 211.7356872558594 32 L 95.26445007324219 32 M 83.69293212890625 0 L 223.3071441650391 0 C 227.6021423339844 0 231.5697174072266 2.295501708984375 233.7104187011719 6.019073486328125 L 303.5614929199219 127.5190734863281 C 305.6904296875 131.2222137451172 305.6904296875 135.7777862548828 303.5614929199219 139.4809265136719 L 233.7104187011719 260.9809265136719 C 231.5697174072266 264.7044982910156 227.6021423339844 267 223.3071441650391 267 L 83.69285583496094 267 C 79.39785766601562 267 75.43028259277344 264.7044982910156 73.28956604003906 260.9809265136719 L 3.438507080078125 139.4809265136719 C 1.30950927734375 135.7777862548828 1.30950927734375 131.2221374511719 3.438507080078125 127.5190734863281 L 73.28964233398438 6.019073486328125 C 75.43028259277344 2.295501708984375 79.39785766601562 0 83.69293212890625 0 Z" stroke="none" fill="#00e1f9"/>
    </g>
  </g>
</svg>
