<svg id="Component_24_1" data-name="Component 24 – 1" xmlns="http://www.w3.org/2000/svg" xmlns:xlink="http://www.w3.org/1999/xlink" width="71.975" height="63.148" viewBox="0 0 71.975 63.148">
  <defs>
    <clipPath id="clip-path">
      <rect id="Rectangle_169" data-name="Rectangle 169" width="71.975" height="63.148" fill="none"/>
    </clipPath>
  </defs>
  <g id="Group_345" data-name="Group 345" clip-path="url(#clip-path)">
    <path id="Path_716" data-name="Path 716" d="M61.885,0h-51.8A10.089,10.089,0,0,0,0,10.09V40.809A10.089,10.089,0,0,0,10.089,50.9H22.977a5.162,5.162,0,0,1,4.371,2.416l4.869,7.75a4.453,4.453,0,0,0,7.541,0l4.869-7.75A5.162,5.162,0,0,1,49,50.9H61.885A10.089,10.089,0,0,0,71.974,40.809V10.09A10.089,10.089,0,0,0,61.885,0" transform="translate(0 -0.001)" fill="#ff5252"/>
    <path id="Path_717" data-name="Path 717" d="M92.275,81.575a1.576,1.576,0,0,1-2.229,0A8.717,8.717,0,0,0,77.717,93.9l1.115,1.115,11.213,11.213a1.576,1.576,0,0,0,2.229,0l11.213-11.213L104.6,93.9A8.717,8.717,0,0,0,92.275,81.575" transform="translate(-55.017 -64.911)" fill="#fff"/>
  </g>
</svg>
