<svg id="Layer_2" data-name="Layer 2" xmlns="http://www.w3.org/2000/svg" width="24" height="24" viewBox="0 0 24 24">
  <g id="unlock">
    <rect id="Rectangle_224" data-name="Rectangle 224" width="24" height="24" fill="#5347e3" opacity="0"/>
    <path id="Path_856" data-name="Path 856" d="M17,8H10V6a2,2,0,1,1,4,0,1,1,0,0,0,2,0A4,4,0,1,0,8,6V8H7a3,3,0,0,0-3,3v8a3,3,0,0,0,3,3H17a3,3,0,0,0,3-3V11A3,3,0,0,0,17,8Zm1,11a1,1,0,0,1-1,1H7a1,1,0,0,1-1-1V11a1,1,0,0,1,1-1H17a1,1,0,0,1,1,1Z" fill="#5347e3"/>
    <path id="Path_857" data-name="Path 857" d="M12,12a3,3,0,1,0,3,3A3,3,0,0,0,12,12Zm0,4a1,1,0,1,1,1-1A1,1,0,0,1,12,16Z" fill="#5347e3"/>
  </g>
</svg>
