<svg width="239" height="75" viewBox="0 0 239 75" fill="none" xmlns="http://www.w3.org/2000/svg">
<path d="M5 61.9094V23.5146C5 21.0313 5.47419 18.5723 6.39547 16.278C7.31675 13.9837 8.66709 11.8991 10.3694 10.1431C12.0717 8.38717 14.0926 6.99426 16.3168 6.04394C18.541 5.09362 20.9248 4.60449 23.3322 4.60449C25.7396 4.60449 28.1235 5.09362 30.3476 6.04394C32.5718 6.99426 34.5927 8.38717 36.295 10.1431C37.9973 11.8991 39.3477 13.9837 40.269 16.278C41.1903 18.5723 41.6644 21.0313 41.6644 23.5146V23.7577" stroke="url(#paint0_linear_1465_3850)" stroke-width="8.0334" stroke-miterlimit="10"/>
<path d="M5 61.9095L41.6644 61.5725H43.5442C48.3526 61.4694 52.9291 59.4212 56.2871 55.8696C59.645 52.3179 61.5155 47.5474 61.4951 42.5864C61.4747 37.6254 59.5652 32.8713 56.1782 29.3492C52.7912 25.827 48.198 23.8189 43.3889 23.7578H43.2229H41.6644" stroke="url(#paint1_linear_1465_3850)" stroke-width="8.0334" stroke-miterlimit="10" stroke-linecap="square"/>
<path d="M28.968 49.5934H20.5349C20.0352 49.5949 19.5382 49.5177 19.0601 49.3646C18.9703 48.9596 18.9246 48.5451 18.9238 48.1292V21.7877C18.9238 20.3558 19.4631 18.9825 20.4229 17.97C21.3827 16.9575 22.6845 16.3887 24.0419 16.3887C25.3993 16.3887 26.7011 16.9575 27.661 17.97C28.6208 18.9825 29.16 20.3558 29.16 21.7877V38.7822L28.968 49.5934Z" fill="#7119C8"/>
<path d="M18.9238 39.044V48.1034C18.9246 48.5194 18.9703 48.9338 19.0601 49.3388C19.5382 49.492 20.0352 49.5691 20.5349 49.5676H45.5058C46.8632 49.5676 48.165 48.9988 49.1248 47.9863C50.0846 46.9737 50.6238 45.6005 50.6238 44.1686C50.6238 42.7367 50.0846 41.3634 49.1248 40.3509C48.165 39.3383 46.8632 38.7695 45.5058 38.7695H29.16L18.9238 39.044Z" fill="#7119C8"/>
<path d="M88.1254 9.476C86.1435 9.476 84.3007 10.1366 82.8404 11.2493V2.59157C82.8404 1.65279 82.0755 0.887848 81.1367 0.887848C80.1631 0.887848 79.3982 1.65279 79.3982 2.59157V18.1685V18.2032C79.3982 23.0015 83.3272 26.9305 88.1254 26.9305C92.9584 26.9305 96.8526 23.0015 96.8526 18.2032C96.8526 13.3702 92.9584 9.476 88.1254 9.476ZM88.1254 23.4882C85.2047 23.4882 82.8404 21.1239 82.8404 18.2032V18.1685C82.8404 15.2826 85.2047 12.9182 88.1254 12.9182C91.0461 12.9182 93.4104 15.2826 93.4104 18.2032C93.4104 21.0891 91.0461 23.4882 88.1254 23.4882ZM111.928 9.58031C110.954 9.58031 110.189 10.3452 110.189 11.284V19.9765C110.189 21.9584 108.59 23.5926 106.573 23.5926C104.591 23.5926 102.992 21.9584 102.992 19.9765V11.284C102.992 10.3452 102.227 9.58031 101.253 9.58031C100.315 9.58031 99.5497 10.3452 99.5497 11.284V20.0113V20.046C99.5845 23.9055 102.714 27.0348 106.573 27.0348C110.467 27.0348 113.597 23.9055 113.632 20.046V20.0113V11.284C113.632 10.3452 112.867 9.58031 111.928 9.58031ZM128.576 9.68462C127.637 9.68462 126.872 10.4496 126.872 11.3883V20.0113C126.872 21.9931 125.272 23.5926 123.29 23.5926C121.343 23.5926 119.709 21.9931 119.709 20.0113V11.3883C119.709 10.4496 118.944 9.68462 118.005 9.68462C117.067 9.68462 116.302 10.4496 116.302 11.3883V20.046C116.302 20.046 116.302 20.046 116.302 20.0808C116.337 23.9055 119.466 27 123.29 27C124.612 27 125.829 26.6523 126.872 26.0264V28.5299C126.872 30.5813 125.203 32.2502 123.117 32.2502C121.691 32.2502 120.405 31.4505 119.744 30.1641C119.361 29.3296 118.318 28.9471 117.484 29.3643C116.615 29.7816 116.267 30.8247 116.684 31.6592C117.901 34.1278 120.37 35.6925 123.117 35.6925C127.08 35.6925 130.314 32.4589 130.314 28.5299V11.3883C130.314 10.4496 129.549 9.68462 128.576 9.68462Z" fill="url(#paint2_linear_1465_3850)"/>
<path d="M87.9516 47.5803C83.1533 47.5803 79.2243 51.4745 79.2243 56.3075V63.2963C79.2243 64.2351 79.9893 65.0348 80.9628 65.0348C81.9016 65.0348 82.6665 64.2351 82.6665 63.2963V56.3075C82.6665 53.3869 85.0309 51.0225 87.9516 51.0225C88.9251 51.0225 89.6901 50.2228 89.6901 49.284C89.6901 48.3452 88.9251 47.5803 87.9516 47.5803ZM99.0209 47.5455C94.1879 47.5455 90.2936 51.4398 90.2936 56.2728C90.2936 61.071 94.1879 65 99.0209 65C100.307 65 102.081 65.0348 104.375 63.5049C105.175 62.9833 105.627 62.0793 105.21 61.2101C104.793 60.3756 103.715 59.8888 102.915 60.4104C101.246 61.4882 99.8206 61.5578 99.0209 61.5578C96.6913 61.5578 94.7442 60.0627 94.014 57.9765H106.01C106.983 57.9765 107.748 57.2116 107.748 56.2728C107.748 50.6053 103.228 47.5455 99.0209 47.5455ZM99.0209 50.9878C101.107 50.9878 103.332 52.1004 104.062 54.5343H94.014C94.7442 52.4829 96.6913 50.9878 99.0209 50.9878ZM119.359 47.6151C114.457 47.6151 110.563 51.5093 110.563 56.4118C110.563 61.3144 114.457 64.9652 119.359 64.9652C121.341 64.9652 123.01 64.4785 124.505 63.2267C124.505 64.2351 125.479 64.9652 126.174 64.9652C127.183 64.9652 127.913 64.2351 127.913 63.2267V56.4118C127.913 51.5093 124.262 47.6151 119.359 47.6151ZM119.359 61.5578C116.439 61.5578 113.97 59.3325 113.97 56.4118C113.97 53.4912 116.439 51.0225 119.359 51.0225C122.28 51.0225 124.505 53.4912 124.505 56.4118C124.505 59.3325 122.28 61.5578 119.359 61.5578ZM132.356 65.0348C133.294 65.0348 134.059 64.2698 134.059 63.2963V40.6611C134.059 39.7223 133.294 38.9574 132.356 38.9574C131.382 38.9574 130.617 39.7223 130.617 40.6611V63.2963C130.617 64.2698 131.382 65.0348 132.356 65.0348ZM147.103 47.5455H144.043C144.043 45.9809 144.53 44.6249 145.573 43.5818C146.164 42.9907 146.825 42.5735 147.555 42.3301C148.459 42.0171 148.911 41.0088 148.598 40.1396C148.285 39.2355 147.277 38.7488 146.407 39.0965C145.156 39.5137 144.078 40.2091 143.139 41.1479C141.47 42.8168 140.566 45.0769 140.601 47.5455H138.688C137.75 47.5455 136.985 48.3105 136.985 49.2493C136.985 50.2228 137.75 50.9878 138.688 50.9878H140.601V63.2615C140.601 64.2351 141.366 65 142.304 65C143.278 65 144.043 64.2351 144.043 63.2615V50.9878H147.103C148.076 50.9878 148.841 50.2228 148.841 49.2493C148.841 48.3105 148.076 47.5455 147.103 47.5455ZM158.15 65C162.983 65 166.877 61.071 166.877 56.2728C166.877 51.4398 162.983 47.5455 158.15 47.5455C153.352 47.5455 149.423 51.4398 149.423 56.2728C149.423 61.071 153.352 65 158.15 65ZM158.15 50.9878C161.071 50.9878 163.435 53.3521 163.435 56.2728C163.435 59.1587 161.071 61.5578 158.15 61.5578C155.229 61.5578 152.865 59.1587 152.865 56.2728C152.865 53.3521 155.229 50.9878 158.15 50.9878ZM171.283 65.0348C172.222 65.0348 172.987 64.2698 172.987 63.2963V40.6611C172.987 39.7223 172.222 38.9574 171.283 38.9574C170.309 38.9574 169.544 39.7223 169.544 40.6611V63.2963C169.544 64.2698 170.309 65.0348 171.283 65.0348ZM177.581 65.0348C178.52 65.0348 179.285 64.2698 179.285 63.2963V40.6611C179.285 39.7223 178.52 38.9574 177.581 38.9574C176.607 38.9574 175.842 39.7223 175.842 40.6611V63.2963C175.842 64.2698 176.607 65.0348 177.581 65.0348ZM190.694 65C195.527 65 199.421 61.071 199.421 56.2728C199.421 51.4398 195.527 47.5455 190.694 47.5455C185.895 47.5455 181.966 51.4398 181.966 56.2728C181.966 61.071 185.895 65 190.694 65ZM190.694 50.9878C193.614 50.9878 195.979 53.3521 195.979 56.2728C195.979 59.1587 193.614 61.5578 190.694 61.5578C187.773 61.5578 185.409 59.1587 185.409 56.2728C185.409 53.3521 187.773 50.9878 190.694 50.9878ZM224.037 47.7194C223.133 47.3717 222.159 47.8237 221.812 48.7277L218.161 58.4285L214.545 48.7973C214.406 48.3105 214.023 47.8932 213.536 47.7194C213.502 47.7194 213.502 47.7194 213.467 47.6846C213.467 47.6846 213.432 47.6846 213.397 47.6846C213.363 47.6498 213.363 47.6498 213.328 47.6498C213.328 47.6498 213.328 47.6498 213.293 47.6498H213.258C213.223 47.6498 213.223 47.6151 213.223 47.6151C213.189 47.6151 213.189 47.6151 213.154 47.6151C213.154 47.6151 213.154 47.6151 213.119 47.6151C213.119 47.6151 213.119 47.6151 213.084 47.6151H213.05C213.015 47.6151 213.015 47.6151 213.015 47.6151C212.98 47.6151 212.98 47.6151 212.945 47.6151C212.945 47.6151 212.945 47.6151 212.911 47.6151C212.911 47.6151 212.876 47.6151 212.841 47.6151C212.667 47.6151 212.493 47.6498 212.319 47.7194C211.798 47.8932 211.45 48.3105 211.276 48.7973L207.66 58.4285L204.009 48.7277C203.697 47.8237 202.688 47.3717 201.819 47.7194C200.915 48.0323 200.463 49.0406 200.811 49.9447L206.026 63.8526C206.27 64.548 206.93 65 207.66 65C208.39 65 209.051 64.5132 209.329 63.8526L212.911 54.2213L216.527 63.8526C216.77 64.548 217.431 65 218.161 65C218.891 65 219.552 64.5132 219.83 63.8526L225.045 49.9447C225.358 49.0406 224.906 48.0323 224.037 47.7194ZM236.194 56.0989C235.22 55.1254 233.899 54.569 232.508 54.569C231.534 54.569 230.735 53.7693 230.735 52.7958C230.735 51.8222 231.534 51.0225 232.508 51.0225C233.342 51.0225 233.934 51.405 234.142 51.9613C234.455 52.8306 235.255 53.4564 236.194 53.2478C237.132 53.0739 237.689 52.1352 237.515 51.1964C237.167 49.2493 234.942 47.5803 232.508 47.5803C229.622 47.5803 227.293 49.9099 227.293 52.7958C227.293 54.1866 227.814 55.5078 228.822 56.4814C229.796 57.4549 231.117 58.0113 232.508 58.0113C233.482 58.0113 234.281 58.811 234.281 59.7845C234.281 60.7928 233.482 61.5926 232.508 61.5926C231.674 61.5926 231.256 61.4535 230.769 60.5495C230.317 59.6802 229.657 59.0196 228.718 59.1934C227.814 59.4021 227.084 60.3408 227.397 61.2449C228.057 63.2615 230.039 65.0348 232.508 65.0348C235.394 65.0348 237.723 62.6704 237.723 59.7845C237.723 58.3937 237.202 57.1072 236.194 56.0989Z" fill="url(#paint3_linear_1465_3850)"/>
<defs>
<linearGradient id="paint0_linear_1465_3850" x1="44.0715" y1="27.6753" x2="28.1424" y2="67.4195" gradientUnits="userSpaceOnUse">
<stop stop-color="#5119C8"/>
<stop offset="1" stop-color="#A601FF"/>
</linearGradient>
<linearGradient id="paint1_linear_1465_3850" x1="65.2043" y1="39.1176" x2="55.1088" y2="81.3516" gradientUnits="userSpaceOnUse">
<stop stop-color="#5119C8"/>
<stop offset="1" stop-color="#A701FF"/>
</linearGradient>
<linearGradient id="paint2_linear_1465_3850" x1="64.499" y1="8" x2="137.205" y2="40.1093" gradientUnits="userSpaceOnUse">
<stop stop-color="#4200FF"/>
<stop offset="1" stop-color="#BD00FF"/>
</linearGradient>
<linearGradient id="paint3_linear_1465_3850" x1="41.499" y1="24.5" x2="240.713" y2="100.009" gradientUnits="userSpaceOnUse">
<stop stop-color="#4200FF"/>
<stop offset="1" stop-color="#BD00FF"/>
</linearGradient>
</defs>
</svg>
