<svg xmlns="http://www.w3.org/2000/svg" xmlns:xlink="http://www.w3.org/1999/xlink" width="181" height="308" viewBox="0 0 181 308"><defs><clipPath id="a"><rect width="181" height="308" transform="translate(1739)" fill="#fff" stroke="#707070" stroke-width="1"/></clipPath></defs><g transform="translate(-1739)" clip-path="url(#a)"><path d="M-1931.5,443a303.728,303.728,0,0,1-60.763-6.125,300,300,0,0,1-56.6-17.568,301.528,301.528,0,0,1-51.214-27.8,303.636,303.636,0,0,1-44.622-36.816,303.634,303.634,0,0,1-36.816-44.621,301.561,301.561,0,0,1-27.8-51.214,299.983,299.983,0,0,1-17.568-56.595A303.755,303.755,0,0,1-2233,141.5a303.756,303.756,0,0,1,6.125-60.763,299.988,299.988,0,0,1,17.568-56.595,301.558,301.558,0,0,1,27.8-51.214,303.639,303.639,0,0,1,36.816-44.621,303.673,303.673,0,0,1,44.622-36.816,301.535,301.535,0,0,1,51.214-27.8,300.013,300.013,0,0,1,56.6-17.568A303.727,303.727,0,0,1-1931.5-160a303.732,303.732,0,0,1,60.763,6.125,299.968,299.968,0,0,1,56.594,17.568,301.521,301.521,0,0,1,51.214,27.8,303.662,303.662,0,0,1,44.621,36.816,303.693,303.693,0,0,1,36.816,44.621,301.551,301.551,0,0,1,27.8,51.214,299.983,299.983,0,0,1,17.568,56.595A303.7,303.7,0,0,1-1630,141.5a303.694,303.694,0,0,1-6.125,60.763,299.981,299.981,0,0,1-17.568,56.595,301.509,301.509,0,0,1-27.8,51.214,303.665,303.665,0,0,1-36.816,44.621,303.675,303.675,0,0,1-44.621,36.816,301.514,301.514,0,0,1-51.214,27.8,299.976,299.976,0,0,1-56.594,17.568A303.732,303.732,0,0,1-1931.5,443Zm0-512.772a212.829,212.829,0,0,0-42.579,4.292,210.2,210.2,0,0,0-39.658,12.31,211.292,211.292,0,0,0-35.888,19.479,212.818,212.818,0,0,0-31.268,25.8,212.81,212.81,0,0,0-25.8,31.268,211.235,211.235,0,0,0-19.479,35.888,210.233,210.233,0,0,0-12.311,39.658,212.836,212.836,0,0,0-4.292,42.579,212.832,212.832,0,0,0,4.292,42.578,210.23,210.23,0,0,0,12.311,39.658,211.236,211.236,0,0,0,19.479,35.888,212.791,212.791,0,0,0,25.8,31.268,212.83,212.83,0,0,0,31.268,25.8,211.294,211.294,0,0,0,35.888,19.479,210.2,210.2,0,0,0,39.658,12.31,212.83,212.83,0,0,0,42.579,4.292,212.828,212.828,0,0,0,42.579-4.292,210.211,210.211,0,0,0,39.658-12.31,211.3,211.3,0,0,0,35.888-19.479,212.812,212.812,0,0,0,31.268-25.8,212.767,212.767,0,0,0,25.8-31.268,211.309,211.309,0,0,0,19.48-35.888,210.236,210.236,0,0,0,12.31-39.658,212.814,212.814,0,0,0,4.292-42.578,212.818,212.818,0,0,0-4.292-42.579,210.242,210.242,0,0,0-12.31-39.658,211.316,211.316,0,0,0-19.48-35.888,212.793,212.793,0,0,0-25.8-31.268,212.8,212.8,0,0,0-31.268-25.8,211.311,211.311,0,0,0-35.888-19.479,210.218,210.218,0,0,0-39.658-12.31A212.827,212.827,0,0,0-1931.5-69.772Z" transform="translate(3984 -118)" fill="#ffcd32"/><g transform="translate(1798.234 164.297) rotate(30)" fill="none"><path d="M74.054,0A12,12,0,0,1,84.46,6.023l20.106,35a12,12,0,0,1,0,11.955l-20.106,35A12,12,0,0,1,74.054,94H33.946A12,12,0,0,1,23.54,87.977l-20.106-35a12,12,0,0,1,0-11.955l20.106-35A12,12,0,0,1,33.946,0Z" stroke="none"/><path d="M 33.94553375244141 12 L 13.83915710449219 47 L 33.94553375244141 82 L 74.05448150634766 82 L 94.16085815429688 47 L 74.05448150634766 12 L 33.94553375244141 12 M 33.94553375244141 0 L 74.05448150634766 0 C 78.35095977783203 0 82.319580078125 2.2969970703125 84.45975494384766 6.022499084472656 L 104.5661315917969 41.02249908447266 C 106.6924362182617 44.72387313842773 106.6924362182617 49.27614974975586 104.5661315917969 52.97750091552734 L 84.45975494384766 87.97750091552734 C 82.31955718994141 91.70297241210938 78.35095977783203 94 74.05448150634766 94 L 33.94553375244141 94 C 29.64905548095703 94 25.68043518066406 91.70297241210938 23.54026031494141 87.97750091552734 L 3.433883666992188 52.97750091552734 C 1.30755615234375 49.27612686157227 1.30755615234375 44.72385025024414 3.433883666992188 41.02249908447266 L 23.54026031494141 6.022499084472656 C 25.68045806884766 2.2969970703125 29.64905548095703 0 33.94553375244141 0 Z" stroke="none" fill="#00e1f9"/></g></g></svg>