<svg xmlns="http://www.w3.org/2000/svg" xmlns:xlink="http://www.w3.org/1999/xlink" width="159" height="300" viewBox="0 0 159 300"><defs><clipPath id="a"><rect width="159" height="300" transform="translate(0 2061)" fill="#fff" stroke="#707070" stroke-width="1"/></clipPath></defs><g transform="translate(0 -2061)" clip-path="url(#a)"><path d="M-2126.5,53a107.29,107.29,0,0,1-21.464-2.164,105.969,105.969,0,0,1-19.991-6.206,106.511,106.511,0,0,1-18.091-9.819,107.248,107.248,0,0,1-15.762-13,107.268,107.268,0,0,1-13-15.762,106.523,106.523,0,0,1-9.819-18.09,105.944,105.944,0,0,1-6.206-19.991A107.3,107.3,0,0,1-2233-53.5a107.3,107.3,0,0,1,2.164-21.463,105.945,105.945,0,0,1,6.206-19.991,106.522,106.522,0,0,1,9.819-18.091,107.272,107.272,0,0,1,13-15.762,107.269,107.269,0,0,1,15.762-13,106.518,106.518,0,0,1,18.091-9.819,105.978,105.978,0,0,1,19.991-6.206A107.29,107.29,0,0,1-2126.5-160a107.289,107.289,0,0,1,21.463,2.164,105.957,105.957,0,0,1,19.991,6.206,106.514,106.514,0,0,1,18.091,9.819,107.266,107.266,0,0,1,15.762,13,107.279,107.279,0,0,1,13,15.762,106.518,106.518,0,0,1,9.819,18.091,105.965,105.965,0,0,1,6.205,19.991A107.264,107.264,0,0,1-2020-53.5a107.263,107.263,0,0,1-2.164,21.463,105.965,105.965,0,0,1-6.205,19.991,106.5,106.5,0,0,1-9.819,18.09,107.267,107.267,0,0,1-13,15.762,107.27,107.27,0,0,1-15.762,13,106.507,106.507,0,0,1-18.091,9.819,105.961,105.961,0,0,1-19.991,6.206A107.289,107.289,0,0,1-2126.5,53Zm0-181.128a75.179,75.179,0,0,0-15.04,1.516,74.247,74.247,0,0,0-14.009,4.348,74.639,74.639,0,0,0-12.677,6.881,75.165,75.165,0,0,0-11.045,9.113,75.171,75.171,0,0,0-9.113,11.045,74.618,74.618,0,0,0-6.881,12.677,74.265,74.265,0,0,0-4.349,14.009,75.177,75.177,0,0,0-1.516,15.04,75.176,75.176,0,0,0,1.516,15.04,74.265,74.265,0,0,0,4.349,14.008,74.613,74.613,0,0,0,6.881,12.677A75.165,75.165,0,0,0-2179.271-.73a75.171,75.171,0,0,0,11.045,9.113,74.639,74.639,0,0,0,12.677,6.881,74.249,74.249,0,0,0,14.009,4.348,75.179,75.179,0,0,0,15.04,1.516,75.176,75.176,0,0,0,15.04-1.516,74.256,74.256,0,0,0,14.009-4.348,74.641,74.641,0,0,0,12.677-6.881A75.176,75.176,0,0,0-2073.73-.73a75.168,75.168,0,0,0,9.113-11.045,74.66,74.66,0,0,0,6.881-12.677,74.261,74.261,0,0,0,4.348-14.008,75.176,75.176,0,0,0,1.516-15.04,75.178,75.178,0,0,0-1.516-15.04,74.263,74.263,0,0,0-4.348-14.009,74.661,74.661,0,0,0-6.881-12.677,75.168,75.168,0,0,0-9.113-11.045,75.168,75.168,0,0,0-11.045-9.113,74.644,74.644,0,0,0-12.677-6.881,74.258,74.258,0,0,0-14.009-4.348A75.176,75.176,0,0,0-2126.5-128.129Z" transform="translate(2157 2271)" fill="#ffcd32"/></g></svg>