<svg id="Component_18_1" data-name="Component 18 – 1" xmlns="http://www.w3.org/2000/svg" xmlns:xlink="http://www.w3.org/1999/xlink" width="232" height="119" viewBox="0 0 232 119">
  <defs>
    <filter id="Rectangle_161" x="-114" y="-61" width="460" height="347" filterUnits="userSpaceOnUse">
      <feOffset dy="53" input="SourceAlpha"/>
      <feGaussianBlur stdDeviation="38" result="blur"/>
      <feFlood flood-color="#5347e3" flood-opacity="0.224"/>
      <feComposite operator="in" in2="blur"/>
      <feComposite in="SourceGraphic"/>
    </filter>
    <clipPath id="clip-path">
      <g transform="matrix(1, 0, 0, 1, 0, 0)" filter="url(#Rectangle_161)">
        <rect id="Rectangle_161-2" data-name="Rectangle 161" width="232" height="119" transform="translate(1118 5750)" fill="#fff"/>
      </g>
    </clipPath>
  </defs>
  <g id="Mask_Group_2" data-name="Mask Group 2" transform="translate(-1118 -5750)" clip-path="url(#clip-path)">
    <g id="Polygon_4" data-name="Polygon 4" transform="translate(1365.185 5981.339)" fill="none">
      <path d="M223.307,0a12,12,0,0,1,10.4,6.019l69.851,121.5a12,12,0,0,1,0,11.962l-69.851,121.5a12,12,0,0,1-10.4,6.019H83.693a12,12,0,0,1-10.4-6.019L3.438,139.481a12,12,0,0,1,0-11.962L73.29,6.019A12,12,0,0,1,83.693,0Z" stroke="none"/>
      <path d="M 95.26445007324219 32 L 36.91140747070312 133.4999847412109 L 95.26431274414062 235 L 211.7356262207031 235 L 270.0885925292969 133.5000305175781 L 211.7356872558594 32 L 95.26445007324219 32 M 83.69293212890625 0 L 223.3071441650391 0 C 227.6021423339844 0 231.5697174072266 2.295501708984375 233.7104187011719 6.019073486328125 L 303.5614929199219 127.5190734863281 C 305.6904296875 131.2222137451172 305.6904296875 135.7777862548828 303.5614929199219 139.4809265136719 L 233.7104187011719 260.9809265136719 C 231.5697174072266 264.7044982910156 227.6021423339844 267 223.3071441650391 267 L 83.69285583496094 267 C 79.39785766601562 267 75.43028259277344 264.7044982910156 73.28956604003906 260.9809265136719 L 3.438507080078125 139.4809265136719 C 1.30950927734375 135.7777862548828 1.30950927734375 131.2221374511719 3.438507080078125 127.5190734863281 L 73.28964233398438 6.019073486328125 C 75.43028259277344 2.295501708984375 79.39785766601562 0 83.69293212890625 0 Z" stroke="none" fill="#00e1f9"/>
    </g>
    <path id="Subtraction_3" data-name="Subtraction 3" d="M-2126.5,53a107.29,107.29,0,0,1-21.464-2.164,105.969,105.969,0,0,1-19.991-6.206,106.511,106.511,0,0,1-18.091-9.819,107.248,107.248,0,0,1-15.762-13,107.268,107.268,0,0,1-13-15.762,106.523,106.523,0,0,1-9.819-18.09,105.944,105.944,0,0,1-6.206-19.991A107.3,107.3,0,0,1-2233-53.5a107.3,107.3,0,0,1,2.164-21.463,105.945,105.945,0,0,1,6.206-19.991,106.522,106.522,0,0,1,9.819-18.091,107.272,107.272,0,0,1,13-15.762,107.269,107.269,0,0,1,15.762-13,106.518,106.518,0,0,1,18.091-9.819,105.978,105.978,0,0,1,19.991-6.206A107.29,107.29,0,0,1-2126.5-160a107.289,107.289,0,0,1,21.463,2.164,105.957,105.957,0,0,1,19.991,6.206,106.514,106.514,0,0,1,18.091,9.819,107.266,107.266,0,0,1,15.762,13,107.279,107.279,0,0,1,13,15.762,106.518,106.518,0,0,1,9.819,18.091,105.965,105.965,0,0,1,6.205,19.991A107.264,107.264,0,0,1-2020-53.5a107.263,107.263,0,0,1-2.164,21.463,105.965,105.965,0,0,1-6.205,19.991,106.5,106.5,0,0,1-9.819,18.09,107.267,107.267,0,0,1-13,15.762,107.27,107.27,0,0,1-15.762,13,106.507,106.507,0,0,1-18.091,9.819,105.961,105.961,0,0,1-19.991,6.206A107.289,107.289,0,0,1-2126.5,53Zm0-181.128a75.179,75.179,0,0,0-15.04,1.516,74.247,74.247,0,0,0-14.009,4.348,74.639,74.639,0,0,0-12.677,6.881,75.165,75.165,0,0,0-11.045,9.113,75.171,75.171,0,0,0-9.113,11.045,74.618,74.618,0,0,0-6.881,12.677,74.265,74.265,0,0,0-4.349,14.009,75.177,75.177,0,0,0-1.516,15.04,75.176,75.176,0,0,0,1.516,15.04,74.265,74.265,0,0,0,4.349,14.008,74.613,74.613,0,0,0,6.881,12.677A75.165,75.165,0,0,0-2179.271-.73a75.171,75.171,0,0,0,11.045,9.113,74.639,74.639,0,0,0,12.677,6.881,74.249,74.249,0,0,0,14.009,4.348,75.179,75.179,0,0,0,15.04,1.516,75.176,75.176,0,0,0,15.04-1.516,74.256,74.256,0,0,0,14.009-4.348,74.641,74.641,0,0,0,12.677-6.881A75.176,75.176,0,0,0-2073.73-.73a75.168,75.168,0,0,0,9.113-11.045,74.66,74.66,0,0,0,6.881-12.677,74.261,74.261,0,0,0,4.348-14.008,75.176,75.176,0,0,0,1.516-15.04,75.178,75.178,0,0,0-1.516-15.04,74.263,74.263,0,0,0-4.348-14.009,74.661,74.661,0,0,0-6.881-12.677,75.168,75.168,0,0,0-9.113-11.045,75.168,75.168,0,0,0-11.045-9.113,74.644,74.644,0,0,0-12.677-6.881,74.258,74.258,0,0,0-14.009-4.348A75.176,75.176,0,0,0-2126.5-128.129Z" transform="translate(3359 5811)" fill="#ffcd32"/>
  </g>
</svg>
