<svg xmlns="http://www.w3.org/2000/svg" width="33.606" height="32.047" viewBox="0 0 33.606 32.047"><path d="M32.813,23.454l-10.885-1.01L17.6,12.4a.872.872,0,0,0-1.6,0l-4.324,10.04L.793,23.454a.872.872,0,0,0-.5,1.524L8.51,32.193l-2.4,10.664a.872.872,0,0,0,1.3.942l9.4-5.581L26.2,43.8a.872.872,0,0,0,1.3-.942L25.1,32.193l8.213-7.215A.872.872,0,0,0,32.813,23.454Z" transform="translate(0 -11.877)" fill="#ffdc64"/><path d="M17.6,12.4a.872.872,0,0,0-1.6,0l-4.324,10.04L.793,23.454a.872.872,0,0,0-.5,1.524L8.51,32.193l-2.4,10.664a.872.872,0,0,0,1.3.942l2.1-1.246A38.471,38.471,0,0,1,19.742,17.369Z" transform="translate(0 -11.877)" fill="#ffc850"/></svg>