<svg xmlns="http://www.w3.org/2000/svg" width="86.825" height="97.698" viewBox="0 0 86.825 97.698"><path d="M90.55,97.7a39.033,39.033,0,1,1,39.033-39.033A39.077,39.077,0,0,1,90.55,97.7Zm0-70.45a31.417,31.417,0,1,0,31.417,31.417A31.453,31.453,0,0,0,90.55,27.248ZM86.431,11.424a3.808,3.808,0,0,1,7.616-.023,3.808,3.808,0,1,0,7.616,0,11.424,11.424,0,0,0-22.849.023,3.808,3.808,0,0,0,7.616,0Z" transform="translate(-47.144)" fill="#5347e3"/><path d="M87.579,124.112h0l-11.571,0a7.868,7.868,0,0,1-7.856-7.858V104.684a7.848,7.848,0,0,1,9.761-7.625A23.962,23.962,0,0,1,95.2,114.351a7.848,7.848,0,0,1-7.624,9.761Zm-11.6-19.68a.182.182,0,0,0-.113.046.246.246,0,0,0-.1.206V116.25a.242.242,0,0,0,.242.242l11.571,0h0a.246.246,0,0,0,.205-.1.16.16,0,0,0,.039-.157,16.348,16.348,0,0,0-11.8-11.8A.162.162,0,0,0,75.981,104.432Zm38.281-12.273a3.808,3.808,0,0,0,0-5.385l-9.52-9.52a3.808,3.808,0,1,0-5.385,5.385l9.52,9.52a3.808,3.808,0,0,0,5.385,0Zm-79.209.19,9.52-9.52a3.808,3.808,0,0,0-5.385-5.385l-9.52,9.52a3.808,3.808,0,1,0,5.385,5.385Z" transform="translate(-28.552 -61.641)" fill="#fc676a"/></svg>