<svg xmlns="http://www.w3.org/2000/svg" width="106.262" height="106.262" viewBox="0 0 106.262 106.262"><path d="M318.327,16.392a4.148,4.148,0,0,0,5.55-1.911l4.151-8.509a4.151,4.151,0,1,0-7.461-3.64l-4.151,8.509A4.151,4.151,0,0,0,318.327,16.392Z" transform="translate(-250.413 0)" fill="#5347e3"/><path d="M72.048,104.753a43.4,43.4,0,1,0-11,72.25,4.151,4.151,0,1,0-3.386-7.58,35.074,35.074,0,1,1,20.476-36.89,4.151,4.151,0,1,0,8.229-1.1,43.059,43.059,0,0,0-14.321-26.682Z" transform="translate(0 -74.494)" fill="#5347e3"/><path d="M384.151,75.155a4.137,4.137,0,0,0,2.935-1.216l6.849-6.849a4.151,4.151,0,0,0-5.87-5.87l-6.849,6.849a4.151,4.151,0,0,0,2.935,7.086Z" transform="translate(-301.134 -47.551)" fill="#5347e3"/><path d="M448.162,137.3a4.151,4.151,0,0,0-5.569-1.856l-8.3,4.151A4.151,4.151,0,1,0,438,147.015l8.3-4.151A4.151,4.151,0,0,0,448.162,137.3Z" transform="translate(-342.339 -106.982)" fill="#5347e3"/><path d="M154.649,332.077a4.145,4.145,0,0,0-3.5,1.935c-.039.06-3.952,5.936-10.2,5.936s-10.159-5.886-10.2-5.946a4.147,4.147,0,1,0-6.844,4.677c1.065,1.564,7.011,9.571,17.042,9.571s15.977-8.008,17.042-9.571a4.146,4.146,0,0,0-3.345-6.6Z" transform="translate(-97.554 -263.157)" fill="#5347e3"/><path d="M136.618,252.626a4.134,4.134,0,0,1-2.611-.926c-2.008-1.627-3.888-2.429-5.591-2.393h-4.25a4.151,4.151,0,0,1,0-8.3h0l4.106,0c3.709-.076,7.395,1.356,10.958,4.244a4.151,4.151,0,0,1-2.616,7.376Zm-40.466,0a4.151,4.151,0,0,1-2.675-7.327c3.418-2.877,7.006-4.321,10.657-4.3H108.6a4.151,4.151,0,1,1,0,8.3h-4.563a8.4,8.4,0,0,0-5.216,2.346A4.134,4.134,0,0,1,96.152,252.626Zm55,32.169V273.172a4.156,4.156,0,0,1,4.151-4.151h11.83a4.151,4.151,0,0,0,0-8.3H155.3a12.467,12.467,0,0,0-12.452,12.452v11.622a4.151,4.151,0,0,0,8.3,0Zm26.8,11.237a4.151,4.151,0,0,0,0-5.87l-13.7-13.7a4.151,4.151,0,0,0-5.87,5.87l13.7,13.7a4.151,4.151,0,0,0,5.87,0Z" transform="translate(-72.905 -190.985)" fill="#fc676a"/></svg>