<svg xmlns="http://www.w3.org/2000/svg" width="92.803" height="92.803" viewBox="0 0 92.803 92.803"><path d="M46.945,21.751A10.875,10.875,0,1,1,57.82,10.875,10.888,10.888,0,0,1,46.945,21.751Zm0-14.5a3.625,3.625,0,1,0,3.625,3.625A3.629,3.629,0,0,0,46.945,7.25ZM63.077,40.6A14.985,14.985,0,0,0,48.005,25.738h-2.12A14.985,14.985,0,0,0,30.813,40.6a3.625,3.625,0,1,0,7.25,0,7.728,7.728,0,0,1,7.822-7.613H48A7.728,7.728,0,0,1,55.827,40.6a3.625,3.625,0,1,0,7.25,0ZM16.132,70.327A10.875,10.875,0,1,1,27.007,59.452,10.888,10.888,0,0,1,16.132,70.327Zm0-14.5a3.625,3.625,0,1,0,3.625,3.625A3.629,3.629,0,0,0,16.132,55.827ZM32.263,89.178A14.985,14.985,0,0,0,17.192,74.315h-2.12A14.985,14.985,0,0,0,0,89.178a3.625,3.625,0,0,0,7.25,0,7.728,7.728,0,0,1,7.822-7.613h2.12a7.728,7.728,0,0,1,7.822,7.613,3.625,3.625,0,0,0,7.25,0ZM76.671,70.327A10.875,10.875,0,1,1,87.546,59.452,10.888,10.888,0,0,1,76.671,70.327Zm0-14.5A3.625,3.625,0,1,0,80.3,59.452,3.629,3.629,0,0,0,76.671,55.827ZM92.8,89.178A14.985,14.985,0,0,0,77.731,74.315h-2.12A14.985,14.985,0,0,0,60.539,89.178a3.625,3.625,0,1,0,7.25,0,7.728,7.728,0,0,1,7.822-7.613h2.12a7.728,7.728,0,0,1,7.822,7.613,3.625,3.625,0,0,0,7.25,0Z" fill="#5347e3"/><path d="M126.529,112.876a3.627,3.627,0,0,1-3.522-2.778,30.2,30.2,0,0,0-11.786-17.465,3.625,3.625,0,1,1,4.224-5.893A37.447,37.447,0,0,1,130.057,108.4a3.629,3.629,0,0,1-3.528,4.473Zm-62.2-2.778A30.213,30.213,0,0,1,75.951,92.749a3.625,3.625,0,1,0-4.262-5.865A37.47,37.47,0,0,0,57.278,108.4a3.625,3.625,0,1,0,7.05,1.695Zm40.478,39.04a3.625,3.625,0,0,0-2.156-6.923,29.95,29.95,0,0,1-8.982,1.474,30.3,30.3,0,0,1-9.467-1.63,3.625,3.625,0,0,0-2.273,6.885,37.525,37.525,0,0,0,11.74,2A37.069,37.069,0,0,0,104.8,149.137Z" transform="translate(-46.813 -70.461)" fill="#fc676a"/></svg>