<svg xmlns="http://www.w3.org/2000/svg" width="68.695" height="92.802" viewBox="0 0 68.695 92.802"><path d="M113.445,92.8H88.251A21.775,21.775,0,0,1,66.5,71.052v-49.3A21.775,21.775,0,0,1,88.251,0h25.194A21.775,21.775,0,0,1,135.2,21.751v49.3A21.775,21.775,0,0,1,113.445,92.8ZM88.251,7.25a14.517,14.517,0,0,0-14.5,14.5v49.3a14.517,14.517,0,0,0,14.5,14.5h25.194a14.517,14.517,0,0,0,14.5-14.5v-49.3a14.517,14.517,0,0,0-14.5-14.5ZM101.12,38.245a10.875,10.875,0,1,1,10.875-10.875A10.888,10.888,0,0,1,101.12,38.245Zm0-14.5a3.625,3.625,0,1,0,3.625,3.625A3.629,3.629,0,0,0,101.12,23.744Z" transform="translate(-66.5)" fill="#5347e3"/><path d="M197.139,251.488a3.625,3.625,0,0,1-3.625-3.625,7.728,7.728,0,0,0-7.821-7.613h-2.12a7.728,7.728,0,0,0-7.821,7.613,3.625,3.625,0,1,1-7.25,0A14.985,14.985,0,0,1,183.573,233h2.12a14.985,14.985,0,0,1,15.072,14.863A3.625,3.625,0,0,1,197.139,251.488ZM184.632,259.1a4.531,4.531,0,1,0,4.531,4.531A4.531,4.531,0,0,0,184.632,259.1Z" transform="translate(-150.013 -190.768)" fill="#fc676a"/></svg>