<svg xmlns="http://www.w3.org/2000/svg" width="92.802" height="92.802" viewBox="0 0 92.802 92.802"><path d="M28.094,27.188h-14.5A13.594,13.594,0,0,1,13.594,0h14.5a13.594,13.594,0,1,1,0,27.188ZM13.594,7.25a6.344,6.344,0,0,0,0,12.688h14.5a6.344,6.344,0,1,0,0-12.688ZM79.208,92.8h-14.5a13.594,13.594,0,1,1,0-27.188h14.5a13.594,13.594,0,0,1,0,27.188Zm-14.5-19.938a6.344,6.344,0,1,0,0,12.688h14.5a6.344,6.344,0,0,0,0-12.688Zm14.5-14.5h-14.5a13.594,13.594,0,1,1,0-27.188h14.5a13.594,13.594,0,0,1,0,27.188Zm-14.5-19.938a6.344,6.344,0,1,0,0,12.688h14.5a6.344,6.344,0,0,0,0-12.688Z" fill="#5347e3"/><path d="M119.744,231.145H108.688a5.444,5.444,0,0,1-5.438-5.438V204.138h15.588a3.625,3.625,0,1,0,0-7.25H103.25v-3.263a3.625,3.625,0,1,0-7.25,0v32.082a12.7,12.7,0,0,0,12.688,12.688h11.056a3.625,3.625,0,1,0,0-7.25Z" transform="translate(-78.6 -155.562)" fill="#fc676a"/></svg>