<svg id="Layer_2" data-name="Layer 2" xmlns="http://www.w3.org/2000/svg" width="24" height="24" viewBox="0 0 24 24">
  <g id="checkmark-circle">
    <rect id="Rectangle_222" data-name="Rectangle 222" width="24" height="24" fill="#5347e3" opacity="0"/>
    <path id="Path_853" data-name="Path 853" d="M9.71,11.29a1,1,0,0,0-1.42,1.42l3,3a.97.97,0,0,0,1.43-.05l7-8a1,1,0,0,0-1.5-1.32L12,13.54Z" fill="#5347e3"/>
    <path id="Path_854" data-name="Path 854" d="M21,11a1,1,0,0,0-1,1,8,8,0,1,1-8-8,8.79,8.79,0,0,1,1.9.22,1,1,0,1,0,.47-1.94A10.54,10.54,0,0,0,12,2,10,10,0,1,0,22,12a1,1,0,0,0-1-1Z" fill="#5347e3"/>
  </g>
</svg>
