<svg id="Layer_2" data-name="Layer 2" xmlns="http://www.w3.org/2000/svg" width="24" height="24" viewBox="0 0 24 24">
  <g id="clock" transform="translate(0 0.139)">
    <rect id="Rectangle_171" data-name="Rectangle 171" width="24" height="24" transform="translate(24 23.861) rotate(180)" fill="#5347e3" opacity="0"/>
    <path id="Path_721" data-name="Path 721" d="M12,2A10,10,0,1,0,22,12,10,10,0,0,0,12,2Zm0,18a8,8,0,1,1,8-8A8,8,0,0,1,12,20Z" fill="#5347e3"/>
    <path id="Path_722" data-name="Path 722" d="M16,11H13V8a1,1,0,0,0-2,0v4a1,1,0,0,0,1,1h4a1,1,0,0,0,0-2Z" fill="#5347e3"/>
  </g>
</svg>
