<svg id="Layer_2" data-name="Layer 2" xmlns="http://www.w3.org/2000/svg" width="24" height="24" viewBox="0 0 24 24">
  <g id="people">
    <rect id="Rectangle_170" data-name="Rectangle 170" width="24" height="24" fill="#5347e3" opacity="0"/>
    <path id="Path_718" data-name="Path 718" d="M9,11A4,4,0,1,0,5,7a4,4,0,0,0,4,4ZM9,5A2,2,0,1,1,7,7,2,2,0,0,1,9,5Z" fill="#5347e3"/>
    <path id="Path_719" data-name="Path 719" d="M17,13a3,3,0,1,0-3-3A3,3,0,0,0,17,13Zm0-4a1,1,0,1,1-1,1A1,1,0,0,1,17,9Z" fill="#5347e3"/>
    <path id="Path_720" data-name="Path 720" d="M17,14a5,5,0,0,0-3.06,1.05A7,7,0,0,0,2,20a1,1,0,1,0,2,0,5,5,0,0,1,10,0,1,1,0,0,0,2,0,6.9,6.9,0,0,0-.86-3.35A3,3,0,0,1,20,19a1,1,0,1,0,2,0A5,5,0,0,0,17,14Z" fill="#5347e3"/>
  </g>
</svg>
