<svg xmlns="http://www.w3.org/2000/svg" width="16.593" height="17.377" viewBox="0 0 16.593 17.377">
  <path id="attachment" d="M5.541,17.377A4.358,4.358,0,0,1,2.459,9.942L11.472.929a3.228,3.228,0,0,1,4.661.136,3.227,3.227,0,0,1,.137,4.661L7.8,14.193a2.04,2.04,0,1,1-2.885-2.885l5.736-5.736a.5.5,0,0,1,.7.7L5.617,12.008A1.05,1.05,0,0,0,7.1,13.493l8.467-8.467a2.261,2.261,0,0,0-.137-3.26,2.26,2.26,0,0,0-3.26-.136L3.159,10.643A3.367,3.367,0,0,0,7.921,15.4l9.013-9.013a.5.5,0,1,1,.7.7L8.622,16.105A4.327,4.327,0,0,1,5.541,17.377Z" transform="translate(-1.187)" fill="currentColor"/>
</svg>
