<svg id="tick" xmlns="http://www.w3.org/2000/svg" width="31.463" height="31.462" viewBox="0 0 31.463 31.462">
  <path id="Subtraction_28" data-name="Subtraction 28" d="M-5715.844-6902.112a15.748,15.748,0,0,1-15.73-15.73,15.749,15.749,0,0,1,15.73-15.732,15.75,15.75,0,0,1,15.732,15.732A15.749,15.749,0,0,1-5715.844-6902.112Zm-6.882-17.607a1.2,1.2,0,0,0-.856.346,1.31,1.31,0,0,0-.388.931,1.2,1.2,0,0,0,.346.854l4.763,4.89a1.289,1.289,0,0,0,.893.383,1.467,1.467,0,0,0,.893-.339l9.056-8.589a1.251,1.251,0,0,0,.405-.89,1.219,1.219,0,0,0-.362-.9,1.316,1.316,0,0,0-.937-.388,1.317,1.317,0,0,0-.892.345l-8.121,7.738-3.868-4A1.308,1.308,0,0,0-5722.726-6919.719Z" transform="translate(5731.574 6933.574)" fill="#f3f5ff"/>
</svg>
