<svg xmlns="http://www.w3.org/2000/svg" width="16" height="12" viewBox="0 0 16 12">
  <g id="Group_364" data-name="Group 364" transform="translate(-298 -21)">
    <path id="Path_739" data-name="Path 739" d="M1,0H15a1,1,0,0,1,0,2H1A1,1,0,0,1,1,0Z" transform="translate(298 21)" fill="#40455f"/>
    <path id="Path_740" data-name="Path 740" d="M1,0H15a1,1,0,0,1,0,2H1A1,1,0,0,1,1,0Z" transform="translate(298 26)" fill="#40455f"/>
    <path id="Path_741" data-name="Path 741" d="M1,0H15a1,1,0,0,1,0,2H1A1,1,0,0,1,1,0Z" transform="translate(298 31)" fill="#40455f"/>
  </g>
</svg>
