<?xml version="1.0" encoding="UTF-8" standalone="no"?><!-- Generator: Gravit.io -->
<svg xmlns="http://www.w3.org/2000/svg" xmlns:xlink="http://www.w3.org/1999/xlink" style="isolation:isolate"
     viewBox="668 226 504 128.8" width="504px" height="128.8px">
  <defs>
    <clipPath id="_clipPath_o3d1FzY7MN1cfSvP33s0KL4im55XUGCO">
      <rect x="668" y="226" width="504" height="128.8"/>
    </clipPath>
  </defs>
  <g clip-path="url(#_clipPath_o3d1FzY7MN1cfSvP33s0KL4im55XUGCO)">
    <g>
      <path
        d=" M 1057.6 259.6 L 1030.4 259.6 C 1028.8 259.6 1027.2 261.2 1026.4 262.8 L 1015.2 333.2 C 1015.2 334.8 1016 335.6 1017.6 335.6 L 1032 335.6 C 1033.6 335.6 1034.4 334.8 1034.4 333.2 L 1037.6 313.2 C 1037.6 311.6 1039.2 310 1041.6 310 L 1050.4 310 C 1068.8 310 1079.2 301.2 1081.6 283.6 C 1083.2 276.4 1081.6 270 1078.4 266 C 1073.6 262 1066.4 259.6 1057.6 259.6 Z  M 1060.8 286 C 1059.2 295.6 1052 295.6 1044.8 295.6 L 1040 295.6 L 1043.2 277.2 C 1043.2 276.4 1044 275.6 1045.6 275.6 L 1047.2 275.6 C 1052 275.6 1056.8 275.6 1059.2 278.8 C 1060.8 279.6 1060.8 282 1060.8 286 Z "
        fill="rgb(19,154,214)"/>
      <g>
        <path
          d=" M 861.6 259.6 L 834.4 259.6 C 832.8 259.6 831.2 261.2 830.4 262.8 L 819.2 333.2 C 819.2 334.8 820 335.6 821.6 335.6 L 834.4 335.6 C 836 335.6 837.6 334 838.4 332.4 L 841.6 313.2 C 841.6 311.6 843.2 310 845.6 310 L 854.4 310 C 872.8 310 883.2 301.2 885.6 283.6 C 887.2 276.4 885.6 270 882.4 266 C 877.6 262 871.2 259.6 861.6 259.6 Z  M 864.8 286 C 863.2 295.6 856 295.6 848.8 295.6 L 844.8 295.6 L 848 277.2 C 848 276.4 848.8 275.6 850.4 275.6 L 852 275.6 C 856.8 275.6 861.6 275.6 864 278.8 C 864.8 279.6 865.6 282 864.8 286 Z "
          fill="rgb(38,59,128)"/>
        <path
          d=" M 944 285.2 L 931.2 285.2 C 930.4 285.2 928.8 286 928.8 286.8 L 928 290.8 L 927.2 289.2 C 924 285.2 918.4 283.6 912 283.6 C 897.6 283.6 884.8 294.8 882.4 310 C 880.8 318 883.2 325.2 887.2 330 C 891.2 334.8 896.8 336.4 904 336.4 C 916 336.4 922.4 329.2 922.4 329.2 L 921.6 333.2 C 921.6 334.8 922.4 335.6 924 335.6 L 936 335.6 C 937.6 335.6 939.2 334 940 332.4 L 947.2 287.6 C 946.4 286.8 944.8 285.2 944 285.2 Z  M 925.6 310.8 C 924 318 918.4 323.6 910.4 323.6 C 906.4 323.6 903.2 322 901.6 320.4 C 900 318 899.2 314.8 899.2 310.8 C 900 303.6 906.4 298 913.6 298 C 917.6 298 920 299.6 922.4 301.2 C 924.8 303.6 925.6 307.6 925.6 310.8 Z "
          fill="rgb(38,59,128)"/>
      </g>
      <path
        d=" M 1139.2 285.2 L 1126.4 285.2 C 1125.6 285.2 1124 286 1124 286.8 L 1123.2 290.8 L 1122.4 289.2 C 1119.2 285.2 1113.6 283.6 1107.2 283.6 C 1092.8 283.6 1080 294.8 1077.6 310 C 1076 318 1078.4 325.2 1082.4 330 C 1086.4 334.8 1092 336.4 1099.2 336.4 C 1111.2 336.4 1117.6 329.2 1117.6 329.2 L 1116.8 333.2 C 1116.8 334.8 1117.6 335.6 1119.2 335.6 L 1131.2 335.6 C 1132.8 335.6 1134.4 334 1135.2 332.4 L 1142.4 287.6 C 1141.6 286.8 1140.8 285.2 1139.2 285.2 Z  M 1120.8 310.8 C 1119.2 318 1113.6 323.6 1105.6 323.6 C 1101.6 323.6 1098.4 322 1096.8 320.4 C 1095.2 318 1094.4 314.8 1094.4 310.8 C 1095.2 303.6 1101.6 298 1108.8 298 C 1112.8 298 1115.2 299.6 1117.6 301.2 C 1120.8 303.6 1121.6 307.6 1120.8 310.8 Z "
        fill="rgb(19,154,214)"/>
      <path
        d=" M 1013.6 285.2 L 1000 285.2 C 998.4 285.2 997.6 286 996.8 286.8 L 979.2 314 L 971.2 288.4 C 970.4 286.8 969.6 286 967.2 286 L 954.4 286 C 952.8 286 952 287.6 952 289.2 L 966.4 331.6 L 952.8 350.8 C 952 352.4 952.8 354.8 954.4 354.8 L 967.2 354.8 C 968.8 354.8 969.6 354 970.4 353.2 L 1014.4 290 C 1016.8 287.6 1015.2 285.2 1013.6 285.2 Z "
        fill="rgb(38,59,128)"/>
      <path
        d=" M 1154.4 262 L 1143.2 334 C 1143.2 335.6 1144 336.4 1145.6 336.4 L 1156.8 336.4 C 1158.4 336.4 1160 334.8 1160.8 333.2 L 1172 262.8 C 1172 261.2 1171.2 260.4 1169.6 260.4 L 1156.8 260.4 C 1156 259.6 1155.2 260.4 1154.4 262 Z "
        fill="rgb(19,154,214)"/>
      <path
        d=" M 760 235.6 C 754.4 229.2 744 226 729.6 226 L 689.6 226 C 687.2 226 684.8 228.4 684 230.8 L 668 335.6 C 668 338 669.6 339.6 671.2 339.6 L 696 339.6 L 702.4 300.4 L 702.4 302 C 703.2 299.6 705.6 297.2 708 297.2 L 720 297.2 C 743.2 297.2 760.8 287.6 766.4 261.2 C 766.4 260.4 766.4 259.6 766.4 258.8 C 765.6 258.8 765.6 258.8 766.4 258.8 C 767.2 248.4 765.6 242 760 235.6 Z "
        fill="rgb(38,59,128)"/>
      <path
        d=" M 765.6 258.8 L 765.6 258.8 C 765.6 259.6 765.6 260.4 765.6 261.2 C 760 288.4 742.4 297.2 719.2 297.2 L 707.2 297.2 C 704.8 297.2 702.4 299.6 701.6 302 L 693.6 350.8 C 693.6 352.4 694.4 354 696.8 354 L 717.6 354 C 720 354 722.4 352.4 722.4 350 L 722.4 349.2 L 726.4 324.4 L 726.4 322.8 C 726.4 320.4 728.8 318.8 731.2 318.8 L 734.4 318.8 C 754.4 318.8 770.4 310.8 774.4 286.8 C 776 277.2 775.2 268.4 770.4 262.8 C 769.6 261.2 768 259.6 765.6 258.8 Z "
        fill="rgb(19,154,214)"/>
      <path
        d=" M 760 256.4 C 759.2 256.4 758.4 255.6 757.6 255.6 C 756.8 255.6 756 255.6 755.2 254.8 C 752 254 748.8 254 744.8 254 L 713.6 254 C 712.8 254 712 254 711.2 254.8 C 709.6 255.6 708.8 257.2 708.8 258.8 L 702.4 300.4 L 702.4 302 C 703.2 299.6 705.6 297.2 708 297.2 L 720 297.2 C 743.2 297.2 760.8 287.6 766.4 261.2 C 766.4 260.4 766.4 259.6 767.2 258.8 C 765.6 258 764.8 257.2 763.2 257.2 C 760.8 256.4 760.8 256.4 760 256.4 Z "
        fill="rgb(35,44,101)"/>
    </g>
  </g>
</svg>
