<svg xmlns="http://www.w3.org/2000/svg" width="28" height="28" viewBox="0 0 28 28">
  <g id="Group_420" data-name="Group 420" transform="translate(-1607 -581)">
    <circle id="Ellipse_64" data-name="Ellipse 64" cx="14" cy="14" r="14" transform="translate(1607 581)" fill="#e9e9ec"/>
    <path id="Path_946" data-name="Path 946" d="M2,0A2,2,0,1,1,0,2,2,2,0,0,1,2,0Z" transform="translate(1613 593)" fill="currentColor"/>
    <path id="Path_947" data-name="Path 947" d="M2,0A2,2,0,1,1,0,2,2,2,0,0,1,2,0Z" transform="translate(1619 593)" fill="currentColor"/>
    <path id="Path_948" data-name="Path 948" d="M2,0A2,2,0,1,1,0,2,2,2,0,0,1,2,0Z" transform="translate(1625 593)" fill="currentColor"/>
  </g>
</svg>
