<?xml version="1.0" standalone="no"?>
<!DOCTYPE svg PUBLIC "-//W3C//DTD SVG 20010904//EN"
 "http://www.w3.org/TR/2001/REC-SVG-20010904/DTD/svg10.dtd">
<svg version="1.0" xmlns="http://www.w3.org/2000/svg"
 width="512.000000pt" height="512.000000pt" viewBox="0 0 512.000000 512.000000"
 preserveAspectRatio="xMidYMid meet">
<metadata>
Created by potrace 1.14, written by Peter Selinger 2001-2017
</metadata>
<g transform="translate(0.000000,512.000000) scale(0.100000,-0.100000)"
fill="#000000" stroke="none">
<path d="M1690 5068 c-268 -16 -547 -107 -783 -256 -377 -237 -662 -628 -772
-1060 -56 -224 -55 -165 -55 -2027 -1 -945 0 -1718 2 -1720 10 -7 3277 26
3393 35 615 44 1155 418 1429 990 67 140 108 263 143 429 24 113 27 148 27
341 1 231 -6 289 -55 478 -135 516 -506 954 -989 1166 -137 61 -310 110 -461
130 l-46 7 -18 87 c-66 317 -230 631 -452 863 -369 385 -836 569 -1363 537z
m302 -633 c229 -40 411 -137 584 -309 113 -114 179 -208 241 -346 81 -181 103
-309 103 -602 0 -115 3 -208 8 -208 4 -1 129 -2 277 -4 287 -4 350 -12 495
-61 528 -180 851 -764 735 -1330 -104 -503 -502 -870 -993 -914 -59 -6 -546
-12 -1082 -16 -536 -3 -1129 -8 -1317 -12 l-343 -6 0 1385 c0 1203 2 1397 15
1474 44 252 140 443 313 626 90 94 232 197 333 242 79 35 213 75 284 85 94 13
262 12 347 -4z"/>
<path d="M1770 3836 c-135 -39 -239 -141 -280 -272 -20 -65 -20 -89 -20 -1159
0 -956 2 -1095 15 -1108 8 -9 43 -18 77 -22 35 -3 515 -2 1068 2 l1005 8 60
29 c200 99 287 353 191 562 -36 77 -123 165 -199 200 l-62 29 -682 3 -683 3 0
695 c0 677 -1 696 -21 756 -40 120 -119 208 -232 258 -58 26 -177 34 -237 16z"/>
</g>
</svg>
